<svg xmlns="http://www.w3.org/2000/svg" width="1330" height="179.97" viewBox="0 0 1330 179.97">
  <g id="Grupo_1102741" data-name="Grupo 1102741" transform="translate(-135.051 -3182.516)">
    <path id="Trazado_879840" data-name="Trazado 879840" d="M0,0H1330V179.97H0Z" transform="translate(135.051 3182.516)" fill="#fef5ea"/>
    <path id="Trazado_872518" data-name="Trazado 872518" d="M7362.027,6513.312v106.621" transform="translate(-6868.143 -3288.28)" fill="#1a1f2e" stroke="#12263f" stroke-width="1"/>
    <path id="Trazado_879582" data-name="Trazado 879582" d="M7362.027,6513.312v106.621" transform="translate(-6658.143 -3288.28)" fill="#1a1f2e" stroke="#12263f" stroke-width="1"/>
    <path id="Trazado_879583" data-name="Trazado 879583" d="M7362.027,6513.312v106.621" transform="translate(-6448.143 -3288.28)" fill="#1a1f2e" stroke="#12263f" stroke-width="1"/>
    <path id="Trazado_879584" data-name="Trazado 879584" d="M7362.027,6513.312v106.621" transform="translate(-6238.143 -3288.28)" fill="#1a1f2e" stroke="#12263f" stroke-width="1"/>
    <path id="Agency_provides_a_fu" data-name="Agency provides a fu" d="M8.57,15H.773V13.453l3.68-3.922A9.078,9.078,0,0,0,5.574,8.086a2.322,2.322,0,0,0,.363-1.172,1.738,1.738,0,0,0-.383-1.191,1.382,1.382,0,0,0-1.094-.434,1.49,1.49,0,0,0-1.207.527A2.089,2.089,0,0,0,2.813,7.2H.547a3.729,3.729,0,0,1,.5-1.9,3.5,3.5,0,0,1,1.4-1.348A4.262,4.262,0,0,1,4.5,3.469a4.036,4.036,0,0,1,2.73.844A2.985,2.985,0,0,1,8.2,6.7a3.825,3.825,0,0,1-.437,1.719,9.551,9.551,0,0,1-1.5,2.039L3.68,13.18H8.57Zm1.594-1.109a1.137,1.137,0,0,1,.363-.875,1.412,1.412,0,0,1,1.828,0,1.137,1.137,0,0,1,.363.875,1.121,1.121,0,0,1-.359.863,1.435,1.435,0,0,1-1.836,0A1.121,1.121,0,0,1,10.164,13.891Zm17.336-2.5a4.185,4.185,0,0,1-1.332,2.785,4.365,4.365,0,0,1-2.98.98,4.008,4.008,0,0,1-3.23-1.445,5.815,5.815,0,0,1-1.215-3.867V8.75a6.481,6.481,0,0,1,.566-2.789,4.231,4.231,0,0,1,1.605-1.848,4.47,4.47,0,0,1,2.406-.645A4.11,4.11,0,0,1,26.227,4.48a4.235,4.235,0,0,1,1.273,2.8H25.992a3.268,3.268,0,0,0-.848-1.975A2.565,2.565,0,0,0,23.32,4.7a2.684,2.684,0,0,0-2.254,1.063,4.882,4.882,0,0,0-.816,3.026v1.1a5.018,5.018,0,0,0,.773,2.948,2.5,2.5,0,0,0,2.164,1.095,2.886,2.886,0,0,0,1.918-.566,3.143,3.143,0,0,0,.887-1.973Zm5.906-3.547a4.331,4.331,0,0,0-.711-.055A1.9,1.9,0,0,0,30.766,9v6H29.32V6.547h1.406l.023.977a2.251,2.251,0,0,1,2.016-1.133,1.477,1.477,0,0,1,.641.109Zm4.688,7.313a3.693,3.693,0,0,1-2.8-1.129,4.19,4.19,0,0,1-1.078-3.02v-.266A5.073,5.073,0,0,1,34.7,8.5a3.748,3.748,0,0,1,1.344-1.547,3.378,3.378,0,0,1,1.871-.559,3.166,3.166,0,0,1,2.563,1.086,4.7,4.7,0,0,1,.914,3.109v.6H35.664a3,3,0,0,0,.73,2.02,2.3,2.3,0,0,0,1.777.77,2.517,2.517,0,0,0,1.3-.312,3.259,3.259,0,0,0,.93-.828l.883.688A3.55,3.55,0,0,1,38.094,15.156Zm-.18-7.578a1.928,1.928,0,0,0-1.469.637A3.1,3.1,0,0,0,35.711,10h4.234V9.891a2.753,2.753,0,0,0-.594-1.707A1.815,1.815,0,0,0,37.914,7.578ZM48.281,15a3.036,3.036,0,0,1-.2-.891,3.225,3.225,0,0,1-2.406,1.047,2.984,2.984,0,0,1-2.051-.707,2.287,2.287,0,0,1-.8-1.793,2.39,2.39,0,0,1,1-2.051,4.733,4.733,0,0,1,2.824-.73h1.406V9.211A1.623,1.623,0,0,0,47.6,8a1.821,1.821,0,0,0-1.336-.449,2.107,2.107,0,0,0-1.3.391,1.151,1.151,0,0,0-.523.945H42.992a2,2,0,0,1,.449-1.223,3.066,3.066,0,0,1,1.219-.934,4.1,4.1,0,0,1,1.691-.344,3.342,3.342,0,0,1,2.289.73A2.635,2.635,0,0,1,49.5,9.133v3.891a4.757,4.757,0,0,0,.3,1.852V15Zm-2.4-1.1a2.54,2.54,0,0,0,1.289-.352,2.127,2.127,0,0,0,.883-.914V10.9H46.922q-2.656,0-2.656,1.555a1.316,1.316,0,0,0,.453,1.063A1.742,1.742,0,0,0,45.883,13.9Zm9.969-6.055a4.331,4.331,0,0,0-.711-.055A1.9,1.9,0,0,0,53.211,9v6H51.766V6.547h1.406l.023.977a2.251,2.251,0,0,1,2.016-1.133,1.477,1.477,0,0,1,.641.109Zm8.68,6.133a2.082,2.082,0,0,0,1.352-.469,1.649,1.649,0,0,0,.641-1.172h1.367a2.621,2.621,0,0,1-.5,1.383,3.293,3.293,0,0,1-1.23,1.047,3.55,3.55,0,0,1-1.629.391A3.482,3.482,0,0,1,61.785,14a4.59,4.59,0,0,1-1.02-3.152v-.242a5.089,5.089,0,0,1,.453-2.2,3.451,3.451,0,0,1,1.3-1.492,3.7,3.7,0,0,1,2-.531,3.39,3.39,0,0,1,2.363.852,3.043,3.043,0,0,1,1,2.211H66.523A1.992,1.992,0,0,0,65.9,8.105a1.932,1.932,0,0,0-1.379-.527,2.023,2.023,0,0,0-1.707.793,3.724,3.724,0,0,0-.605,2.293v.273a3.65,3.65,0,0,0,.6,2.25A2.033,2.033,0,0,0,64.531,13.977Zm8.492,1.18a3.693,3.693,0,0,1-2.8-1.129,4.19,4.19,0,0,1-1.078-3.02v-.266a5.073,5.073,0,0,1,.48-2.246,3.748,3.748,0,0,1,1.344-1.547,3.378,3.378,0,0,1,1.871-.559,3.166,3.166,0,0,1,2.563,1.086,4.7,4.7,0,0,1,.914,3.109v.6H70.594a3,3,0,0,0,.73,2.02,2.3,2.3,0,0,0,1.777.77,2.517,2.517,0,0,0,1.3-.312,3.259,3.259,0,0,0,.93-.828l.883.688A3.55,3.55,0,0,1,73.023,15.156Zm-.18-7.578a1.928,1.928,0,0,0-1.469.637A3.1,3.1,0,0,0,70.641,10h4.234V9.891a2.753,2.753,0,0,0-.594-1.707A1.815,1.815,0,0,0,72.844,7.578Zm9.234.266a4.331,4.331,0,0,0-.711-.055A1.9,1.9,0,0,0,79.438,9v6H77.992V6.547H79.4l.023.977a2.251,2.251,0,0,1,2.016-1.133,1.477,1.477,0,0,1,.641.109Zm4.57,6.133A2.082,2.082,0,0,0,88,13.508a1.649,1.649,0,0,0,.641-1.172h1.367a2.621,2.621,0,0,1-.5,1.383,3.293,3.293,0,0,1-1.23,1.047,3.55,3.55,0,0,1-1.629.391A3.482,3.482,0,0,1,83.9,14a4.59,4.59,0,0,1-1.02-3.152v-.242a5.089,5.089,0,0,1,.453-2.2,3.451,3.451,0,0,1,1.3-1.492,3.7,3.7,0,0,1,2-.531A3.39,3.39,0,0,1,89,7.242a3.043,3.043,0,0,1,1,2.211H88.641a1.992,1.992,0,0,0-.621-1.348,1.932,1.932,0,0,0-1.379-.527,2.023,2.023,0,0,0-1.707.793,3.724,3.724,0,0,0-.605,2.293v.273a3.65,3.65,0,0,0,.6,2.25A2.033,2.033,0,0,0,86.648,13.977ZM96.852,15a3.036,3.036,0,0,1-.2-.891,3.225,3.225,0,0,1-2.406,1.047,2.984,2.984,0,0,1-2.051-.707,2.288,2.288,0,0,1-.8-1.793,2.39,2.39,0,0,1,1-2.051,4.733,4.733,0,0,1,2.824-.73h1.406V9.211A1.623,1.623,0,0,0,96.172,8a1.821,1.821,0,0,0-1.336-.449,2.108,2.108,0,0,0-1.3.391,1.151,1.151,0,0,0-.523.945H91.563a2,2,0,0,1,.449-1.223,3.066,3.066,0,0,1,1.219-.934,4.1,4.1,0,0,1,1.691-.344,3.342,3.342,0,0,1,2.289.73,2.635,2.635,0,0,1,.859,2.012v3.891a4.757,4.757,0,0,0,.3,1.852V15Zm-2.4-1.1a2.54,2.54,0,0,0,1.289-.352,2.127,2.127,0,0,0,.883-.914V10.9H95.492q-2.656,0-2.656,1.555a1.316,1.316,0,0,0,.453,1.063A1.742,1.742,0,0,0,94.453,13.9Zm7.25-7.352.047,1.063a3.08,3.08,0,0,1,2.531-1.219q2.68,0,2.7,3.023V15h-1.445V9.406a1.946,1.946,0,0,0-.418-1.352,1.675,1.675,0,0,0-1.277-.437,2.086,2.086,0,0,0-1.234.375,2.546,2.546,0,0,0-.828.984V15h-1.445V6.547ZM110.734,15h-1.453V6.547h1.453Zm.016-11.992h1.75l-2.094,2.3-1.164,0ZM118.336,15a3.036,3.036,0,0,1-.2-.891,3.225,3.225,0,0,1-2.406,1.047,2.984,2.984,0,0,1-2.051-.707,2.288,2.288,0,0,1-.8-1.793,2.39,2.39,0,0,1,1-2.051,4.733,4.733,0,0,1,2.824-.73h1.406V9.211A1.623,1.623,0,0,0,117.656,8a1.821,1.821,0,0,0-1.336-.449,2.108,2.108,0,0,0-1.3.391,1.151,1.151,0,0,0-.523.945h-1.453a2,2,0,0,1,.449-1.223,3.066,3.066,0,0,1,1.219-.934,4.1,4.1,0,0,1,1.691-.344,3.342,3.342,0,0,1,2.289.73,2.635,2.635,0,0,1,.859,2.012v3.891a4.757,4.757,0,0,0,.3,1.852V15Zm-2.4-1.1a2.54,2.54,0,0,0,1.289-.352,2.127,2.127,0,0,0,.883-.914V10.9h-1.133q-2.656,0-2.656,1.555a1.316,1.316,0,0,0,.453,1.063A1.742,1.742,0,0,0,115.938,13.9Zm5.914.344a.905.905,0,0,1,.223-.625.848.848,0,0,1,.668-.25.874.874,0,0,1,.676.25.887.887,0,0,1,.23.625.839.839,0,0,1-.23.6.89.89,0,0,1-.676.242.8.8,0,0,1-.891-.844Z" transform="translate(541.884 3287.53)" fill="#12263f"/>
    <path id="Agency_provides_a_fu-2" data-name="Agency provides a fu" d="M1.109,9.406l.656-5.781H8.141V5.508H3.617L3.336,7.953a3.58,3.58,0,0,1,1.711-.43A3.279,3.279,0,0,1,7.594,8.531a4.026,4.026,0,0,1,.922,2.82,4.124,4.124,0,0,1-.465,1.973,3.281,3.281,0,0,1-1.332,1.352,4.158,4.158,0,0,1-2.047.48,4.416,4.416,0,0,1-1.914-.418,3.4,3.4,0,0,1-1.395-1.176A3.2,3.2,0,0,1,.82,11.836H3.055a1.669,1.669,0,0,0,.5,1.105,1.573,1.573,0,0,0,1.113.395,1.388,1.388,0,0,0,1.18-.551,2.551,2.551,0,0,0,.414-1.559,2.11,2.11,0,0,0-.477-1.484A1.749,1.749,0,0,0,4.43,9.227a1.954,1.954,0,0,0-1.3.422l-.219.2Zm9.055,4.484a1.137,1.137,0,0,1,.363-.875,1.412,1.412,0,0,1,1.828,0,1.137,1.137,0,0,1,.363.875,1.121,1.121,0,0,1-.359.863,1.435,1.435,0,0,1-1.836,0A1.121,1.121,0,0,1,10.164,13.891Zm17.367-.383a3.465,3.465,0,0,1-1.613,1.238,6.517,6.517,0,0,1-2.41.41,4.674,4.674,0,0,1-2.469-.652,4.346,4.346,0,0,1-1.668-1.855,6.408,6.408,0,0,1-.605-2.789V8.867a5.982,5.982,0,0,1,1.2-3.984,4.179,4.179,0,0,1,3.371-1.414,4.316,4.316,0,0,1,2.867.91,3.965,3.965,0,0,1,1.328,2.582h-1.5A2.48,2.48,0,0,0,23.344,4.7a2.655,2.655,0,0,0-2.285,1.06,5.173,5.173,0,0,0-.785,3.069v.93a4.848,4.848,0,0,0,.875,3.046,2.836,2.836,0,0,0,2.367,1.13,5.228,5.228,0,0,0,1.477-.187,2.283,2.283,0,0,0,1.047-.631V10.563H23.406V9.336h4.125Zm5.781,1.648a3.693,3.693,0,0,1-2.8-1.129,4.19,4.19,0,0,1-1.078-3.02v-.266a5.073,5.073,0,0,1,.48-2.246,3.748,3.748,0,0,1,1.344-1.547,3.378,3.378,0,0,1,1.871-.559A3.166,3.166,0,0,1,35.7,7.477a4.7,4.7,0,0,1,.914,3.109v.6H30.883a3,3,0,0,0,.73,2.02,2.3,2.3,0,0,0,1.777.77,2.517,2.517,0,0,0,1.3-.312,3.259,3.259,0,0,0,.93-.828l.883.688A3.55,3.55,0,0,1,33.313,15.156Zm-.18-7.578a1.928,1.928,0,0,0-1.469.637A3.1,3.1,0,0,0,30.93,10h4.234V9.891a2.753,2.753,0,0,0-.594-1.707A1.815,1.815,0,0,0,33.133,7.578Zm10.07,5.18a1.064,1.064,0,0,0-.441-.91,4.249,4.249,0,0,0-1.539-.559,7.277,7.277,0,0,1-1.742-.562,2.479,2.479,0,0,1-.953-.781,1.869,1.869,0,0,1-.309-1.078A2.193,2.193,0,0,1,39.1,7.109a3.432,3.432,0,0,1,2.246-.719,3.532,3.532,0,0,1,2.332.742,2.357,2.357,0,0,1,.895,1.9H43.117a1.3,1.3,0,0,0-.5-1.023,1.888,1.888,0,0,0-1.27-.43,1.976,1.976,0,0,0-1.234.344,1.082,1.082,0,0,0-.445.9.877.877,0,0,0,.414.789,5.1,5.1,0,0,0,1.5.508,7.8,7.8,0,0,1,1.754.578,2.558,2.558,0,0,1,1,.809,1.988,1.988,0,0,1,.324,1.152,2.163,2.163,0,0,1-.906,1.816,3.8,3.8,0,0,1-2.352.684,4.257,4.257,0,0,1-1.8-.359,2.922,2.922,0,0,1-1.223-1A2.42,2.42,0,0,1,37.93,12.4h1.445a1.5,1.5,0,0,0,.582,1.152,2.258,2.258,0,0,0,1.434.426,2.331,2.331,0,0,0,1.316-.332A1.02,1.02,0,0,0,43.2,12.758ZM48.492,4.5V6.547H50.07V7.664H48.492v5.249a1.173,1.173,0,0,0,.211.763.888.888,0,0,0,.719.254,3.5,3.5,0,0,0,.688-.094V15A4.215,4.215,0,0,1,49,15.156a1.8,1.8,0,0,1-1.461-.586,2.517,2.517,0,0,1-.492-1.664V7.664H45.508V6.547h1.539V4.5ZM53.328,15H51.883V6.547h1.445ZM51.766,4.3a.863.863,0,0,1,.215-.594.807.807,0,0,1,.637-.242.819.819,0,0,1,.641.242.854.854,0,0,1,.219.594.826.826,0,0,1-.219.586.834.834,0,0,1-.641.234.821.821,0,0,1-.637-.234A.834.834,0,0,1,51.766,4.3ZM55.258,10.7a4.993,4.993,0,0,1,.488-2.234A3.643,3.643,0,0,1,57.105,6.93a3.7,3.7,0,0,1,1.988-.539,3.565,3.565,0,0,1,2.793,1.2,4.6,4.6,0,0,1,1.066,3.18v.1a5.036,5.036,0,0,1-.473,2.215,3.589,3.589,0,0,1-1.352,1.527,3.743,3.743,0,0,1-2.02.547,3.556,3.556,0,0,1-2.785-1.2A4.575,4.575,0,0,1,55.258,10.8Zm1.453.172a3.616,3.616,0,0,0,.652,2.258,2.211,2.211,0,0,0,3.5-.012,3.955,3.955,0,0,0,.648-2.418,3.61,3.61,0,0,0-.66-2.254,2.1,2.1,0,0,0-1.754-.863,2.075,2.075,0,0,0-1.727.852A3.925,3.925,0,0,0,56.711,10.867Zm9.422-4.32.047,1.063a3.08,3.08,0,0,1,2.531-1.219q2.68,0,2.7,3.023V15H69.969V9.406a1.946,1.946,0,0,0-.418-1.352,1.675,1.675,0,0,0-1.277-.437,2.086,2.086,0,0,0-1.234.375,2.546,2.546,0,0,0-.828.984V15H64.766V6.547ZM78.813,15a3.036,3.036,0,0,1-.2-.891A3.225,3.225,0,0,1,76.2,15.156a2.984,2.984,0,0,1-2.051-.707,2.288,2.288,0,0,1-.8-1.793,2.39,2.39,0,0,1,1-2.051,4.733,4.733,0,0,1,2.824-.73h1.406V9.211A1.623,1.623,0,0,0,78.133,8,1.821,1.821,0,0,0,76.8,7.555a2.108,2.108,0,0,0-1.3.391,1.151,1.151,0,0,0-.523.945H73.523a2,2,0,0,1,.449-1.223,3.066,3.066,0,0,1,1.219-.934,4.1,4.1,0,0,1,1.691-.344,3.342,3.342,0,0,1,2.289.73,2.635,2.635,0,0,1,.859,2.012v3.891a4.757,4.757,0,0,0,.3,1.852V15Zm-2.4-1.1a2.54,2.54,0,0,0,1.289-.352,2.127,2.127,0,0,0,.883-.914V10.9H77.453q-2.656,0-2.656,1.555a1.316,1.316,0,0,0,.453,1.063A1.742,1.742,0,0,0,76.414,13.9Zm9.969-6.055a4.331,4.331,0,0,0-.711-.055A1.9,1.9,0,0,0,83.742,9v6H82.3V6.547H83.7l.023.977a2.251,2.251,0,0,1,2.016-1.133,1.477,1.477,0,0,1,.641.109ZM93.242,15H91.8V3h1.445Zm1.93-4.3a4.993,4.993,0,0,1,.488-2.234A3.643,3.643,0,0,1,97.02,6.93a3.7,3.7,0,0,1,1.988-.539,3.565,3.565,0,0,1,2.793,1.2,4.6,4.6,0,0,1,1.066,3.18v.1a5.036,5.036,0,0,1-.473,2.215,3.589,3.589,0,0,1-1.352,1.527,3.743,3.743,0,0,1-2.02.547,3.556,3.556,0,0,1-2.785-1.2A4.575,4.575,0,0,1,95.172,10.8Zm1.453.172a3.616,3.616,0,0,0,.652,2.258,2.211,2.211,0,0,0,3.5-.012,3.955,3.955,0,0,0,.648-2.418,3.61,3.61,0,0,0-.66-2.254,2.1,2.1,0,0,0-1.754-.863,2.075,2.075,0,0,0-1.727.852A3.925,3.925,0,0,0,96.625,10.867ZM109.6,12.758a1.064,1.064,0,0,0-.441-.91,4.249,4.249,0,0,0-1.539-.559,7.277,7.277,0,0,1-1.742-.562,2.479,2.479,0,0,1-.953-.781,1.869,1.869,0,0,1-.309-1.078,2.193,2.193,0,0,1,.879-1.758,3.432,3.432,0,0,1,2.246-.719,3.532,3.532,0,0,1,2.332.742,2.357,2.357,0,0,1,.895,1.9h-1.453a1.3,1.3,0,0,0-.5-1.023,1.888,1.888,0,0,0-1.27-.43,1.976,1.976,0,0,0-1.234.344,1.082,1.082,0,0,0-.445.9.877.877,0,0,0,.414.789,5.1,5.1,0,0,0,1.5.508,7.8,7.8,0,0,1,1.754.578,2.558,2.558,0,0,1,1,.809,1.988,1.988,0,0,1,.324,1.152,2.163,2.163,0,0,1-.906,1.816,3.8,3.8,0,0,1-2.352.684,4.257,4.257,0,0,1-1.8-.359,2.922,2.922,0,0,1-1.223-1,2.42,2.42,0,0,1-.441-1.395h1.445a1.5,1.5,0,0,0,.582,1.152,2.258,2.258,0,0,0,1.434.426,2.331,2.331,0,0,0,1.316-.332A1.02,1.02,0,0,0,109.6,12.758ZM5.18,31.844a4.331,4.331,0,0,0-.711-.055A1.9,1.9,0,0,0,2.539,33v6H1.094V30.547H2.5l.023.977a2.251,2.251,0,0,1,2.016-1.133,1.477,1.477,0,0,1,.641.109Zm4.688,7.313a3.693,3.693,0,0,1-2.8-1.129,4.19,4.19,0,0,1-1.078-3.02v-.266a5.073,5.073,0,0,1,.48-2.246,3.748,3.748,0,0,1,1.344-1.547,3.378,3.378,0,0,1,1.871-.559,3.166,3.166,0,0,1,2.563,1.086,4.7,4.7,0,0,1,.914,3.109v.6H7.438a3,3,0,0,0,.73,2.02,2.3,2.3,0,0,0,1.777.77,2.517,2.517,0,0,0,1.3-.312,3.258,3.258,0,0,0,.93-.828l.883.688A3.55,3.55,0,0,1,9.867,39.156Zm-.18-7.578a1.928,1.928,0,0,0-1.469.637A3.1,3.1,0,0,0,7.484,34h4.234v-.109a2.753,2.753,0,0,0-.594-1.707A1.815,1.815,0,0,0,9.688,31.578Zm8.539,6.4a2.082,2.082,0,0,0,1.352-.469,1.649,1.649,0,0,0,.641-1.172h1.367a2.621,2.621,0,0,1-.5,1.383,3.293,3.293,0,0,1-1.23,1.047,3.55,3.55,0,0,1-1.629.391A3.482,3.482,0,0,1,15.48,38a4.59,4.59,0,0,1-1.02-3.152v-.242a5.089,5.089,0,0,1,.453-2.2,3.451,3.451,0,0,1,1.3-1.492,3.7,3.7,0,0,1,2-.531,3.39,3.39,0,0,1,2.363.852,3.043,3.043,0,0,1,1,2.211H20.219a1.992,1.992,0,0,0-.621-1.348,1.932,1.932,0,0,0-1.379-.527,2.023,2.023,0,0,0-1.707.793,3.724,3.724,0,0,0-.605,2.293v.273a3.65,3.65,0,0,0,.6,2.25A2.033,2.033,0,0,0,18.227,37.977ZM24.781,39H23.336V27h1.445Zm7.531,0a3.036,3.036,0,0,1-.2-.891A3.225,3.225,0,0,1,29.7,39.156a2.984,2.984,0,0,1-2.051-.707,2.287,2.287,0,0,1-.8-1.793,2.39,2.39,0,0,1,1-2.051,4.733,4.733,0,0,1,2.824-.73h1.406v-.664A1.623,1.623,0,0,0,31.633,32a1.821,1.821,0,0,0-1.336-.449,2.108,2.108,0,0,0-1.3.391,1.151,1.151,0,0,0-.523.945H27.023a2,2,0,0,1,.449-1.223,3.066,3.066,0,0,1,1.219-.934,4.1,4.1,0,0,1,1.691-.344,3.342,3.342,0,0,1,2.289.73,2.635,2.635,0,0,1,.859,2.012v3.891a4.757,4.757,0,0,0,.3,1.852V39Zm-2.4-1.1a2.54,2.54,0,0,0,1.289-.352,2.127,2.127,0,0,0,.883-.914V34.9H30.953q-2.656,0-2.656,1.555a1.316,1.316,0,0,0,.453,1.063A1.742,1.742,0,0,0,29.914,37.9Zm7.242-7.352.039.938A3.122,3.122,0,0,1,39.7,30.391a2.417,2.417,0,0,1,2.414,1.359,3.2,3.2,0,0,1,1.1-.984,3.242,3.242,0,0,1,1.6-.375q2.781,0,2.828,2.945V39H46.2V33.422a1.941,1.941,0,0,0-.414-1.355,1.823,1.823,0,0,0-1.391-.449,1.916,1.916,0,0,0-1.336.48,1.949,1.949,0,0,0-.617,1.293V39H40.984V33.461a1.613,1.613,0,0,0-1.8-1.844,1.934,1.934,0,0,0-1.945,1.211V39H35.789V30.547ZM49.438,34.7a4.993,4.993,0,0,1,.488-2.234,3.643,3.643,0,0,1,1.359-1.531,3.7,3.7,0,0,1,1.988-.539,3.565,3.565,0,0,1,2.793,1.2,4.6,4.6,0,0,1,1.066,3.18v.1a5.036,5.036,0,0,1-.473,2.215,3.589,3.589,0,0,1-1.352,1.527,3.743,3.743,0,0,1-2.02.547,3.556,3.556,0,0,1-2.785-1.2A4.575,4.575,0,0,1,49.438,34.8Zm1.453.172a3.616,3.616,0,0,0,.652,2.258,2.211,2.211,0,0,0,3.5-.012,3.955,3.955,0,0,0,.648-2.418,3.61,3.61,0,0,0-.66-2.254,2.1,2.1,0,0,0-1.754-.863,2.075,2.075,0,0,0-1.727.852A3.925,3.925,0,0,0,50.891,34.867Zm12.977,1.891a1.064,1.064,0,0,0-.441-.91,4.249,4.249,0,0,0-1.539-.559,7.277,7.277,0,0,1-1.742-.562,2.479,2.479,0,0,1-.953-.781,1.869,1.869,0,0,1-.309-1.078,2.193,2.193,0,0,1,.879-1.758,3.432,3.432,0,0,1,2.246-.719,3.532,3.532,0,0,1,2.332.742,2.357,2.357,0,0,1,.895,1.9H63.781a1.3,1.3,0,0,0-.5-1.023,1.888,1.888,0,0,0-1.27-.43,1.976,1.976,0,0,0-1.234.344,1.082,1.082,0,0,0-.445.9.877.877,0,0,0,.414.789,5.1,5.1,0,0,0,1.5.508,7.8,7.8,0,0,1,1.754.578,2.558,2.558,0,0,1,1,.809,1.988,1.988,0,0,1,.324,1.152,2.163,2.163,0,0,1-.906,1.816,3.8,3.8,0,0,1-2.352.684,4.257,4.257,0,0,1-1.8-.359,2.922,2.922,0,0,1-1.223-1,2.42,2.42,0,0,1-.441-1.395h1.445a1.5,1.5,0,0,0,.582,1.152,2.258,2.258,0,0,0,1.434.426,2.331,2.331,0,0,0,1.316-.332A1.02,1.02,0,0,0,63.867,36.758ZM70.8,34.7a4.952,4.952,0,0,1,.922-3.129,3.137,3.137,0,0,1,4.766-.168V27h1.445V39H76.609l-.07-.906a2.943,2.943,0,0,1-2.414,1.063,2.887,2.887,0,0,1-2.395-1.2,5.008,5.008,0,0,1-.926-3.141Zm1.445.164a3.749,3.749,0,0,0,.594,2.25,1.92,1.92,0,0,0,1.641.813A2.108,2.108,0,0,0,76.492,36.7V32.813a2.125,2.125,0,0,0-1.992-1.2,1.929,1.929,0,0,0-1.656.82A4.128,4.128,0,0,0,72.25,34.867Zm11.438,4.289a3.693,3.693,0,0,1-2.8-1.129,4.19,4.19,0,0,1-1.078-3.02v-.266a5.073,5.073,0,0,1,.48-2.246,3.748,3.748,0,0,1,1.344-1.547,3.378,3.378,0,0,1,1.871-.559,3.166,3.166,0,0,1,2.563,1.086,4.7,4.7,0,0,1,.914,3.109v.6H81.258a3,3,0,0,0,.73,2.02,2.3,2.3,0,0,0,1.777.77,2.517,2.517,0,0,0,1.3-.312,3.259,3.259,0,0,0,.93-.828l.883.688A3.55,3.55,0,0,1,83.688,39.156Zm-.18-7.578a1.928,1.928,0,0,0-1.469.637A3.1,3.1,0,0,0,81.3,34h4.234v-.109a2.753,2.753,0,0,0-.594-1.707A1.815,1.815,0,0,0,83.508,31.578ZM90.227,39H88.781V27h1.445Zm9.664-1.023a2.082,2.082,0,0,0,1.352-.469,1.649,1.649,0,0,0,.641-1.172h1.367a2.621,2.621,0,0,1-.5,1.383,3.293,3.293,0,0,1-1.23,1.047,3.55,3.55,0,0,1-1.629.391A3.482,3.482,0,0,1,97.145,38a4.59,4.59,0,0,1-1.02-3.152v-.242a5.089,5.089,0,0,1,.453-2.2,3.451,3.451,0,0,1,1.3-1.492,3.7,3.7,0,0,1,2-.531,3.39,3.39,0,0,1,2.363.852,3.043,3.043,0,0,1,1,2.211h-1.367a1.992,1.992,0,0,0-.621-1.348,1.932,1.932,0,0,0-1.379-.527,2.023,2.023,0,0,0-1.707.793,3.724,3.724,0,0,0-.605,2.293v.273a3.65,3.65,0,0,0,.6,2.25A2.033,2.033,0,0,0,99.891,37.977ZM106.445,39H105V27h1.445Zm3.883,0h-1.445V30.547h1.445Zm-1.562-10.7a.863.863,0,0,1,.215-.594.807.807,0,0,1,.637-.242.819.819,0,0,1,.641.242.854.854,0,0,1,.219.594.826.826,0,0,1-.219.586.834.834,0,0,1-.641.234.821.821,0,0,1-.637-.234A.834.834,0,0,1,108.766,28.3Zm7.383,10.852a3.693,3.693,0,0,1-2.8-1.129,4.19,4.19,0,0,1-1.078-3.02v-.266a5.073,5.073,0,0,1,.48-2.246,3.748,3.748,0,0,1,1.344-1.547,3.378,3.378,0,0,1,1.871-.559,3.166,3.166,0,0,1,2.563,1.086,4.7,4.7,0,0,1,.914,3.109v.6h-5.727a3,3,0,0,0,.73,2.02,2.3,2.3,0,0,0,1.777.77,2.517,2.517,0,0,0,1.3-.312,3.259,3.259,0,0,0,.93-.828l.883.688A3.55,3.55,0,0,1,116.148,39.156Zm-.18-7.578a1.928,1.928,0,0,0-1.469.637A3.1,3.1,0,0,0,113.766,34H118v-.109a2.753,2.753,0,0,0-.594-1.707A1.815,1.815,0,0,0,115.969,31.578Zm6.516-1.031.047,1.063a3.08,3.08,0,0,1,2.531-1.219q2.68,0,2.7,3.023V39H126.32V33.406a1.946,1.946,0,0,0-.418-1.352,1.675,1.675,0,0,0-1.277-.437,2.086,2.086,0,0,0-1.234.375,2.546,2.546,0,0,0-.828.984V39h-1.445V30.547Zm9.422-2.047v2.047h1.578v1.117h-1.578v5.249a1.173,1.173,0,0,0,.211.763.888.888,0,0,0,.719.254,3.5,3.5,0,0,0,.688-.094V39a4.215,4.215,0,0,1-1.109.155,1.8,1.8,0,0,1-1.461-.586,2.517,2.517,0,0,1-.492-1.664V31.664h-1.539V30.547h1.539V28.5Zm6.773,10.656a3.693,3.693,0,0,1-2.8-1.129,4.19,4.19,0,0,1-1.078-3.02v-.266a5.073,5.073,0,0,1,.48-2.246,3.748,3.748,0,0,1,1.344-1.547,3.378,3.378,0,0,1,1.871-.559,3.166,3.166,0,0,1,2.563,1.086,4.7,4.7,0,0,1,.914,3.109v.6H136.25a3,3,0,0,0,.73,2.02,2.3,2.3,0,0,0,1.777.77,2.517,2.517,0,0,0,1.3-.312,3.258,3.258,0,0,0,.93-.828l.883.688A3.55,3.55,0,0,1,138.68,39.156Zm-.18-7.578a1.928,1.928,0,0,0-1.469.637A3.1,3.1,0,0,0,136.3,34h4.234v-.109a2.753,2.753,0,0,0-.594-1.707A1.815,1.815,0,0,0,138.5,31.578Zm5.18,6.664a.905.905,0,0,1,.223-.625.848.848,0,0,1,.668-.25.874.874,0,0,1,.676.25.887.887,0,0,1,.23.625.839.839,0,0,1-.23.6.89.89,0,0,1-.676.242.8.8,0,0,1-.891-.844Z" transform="translate(1153.384 3278.03)" fill="#12263f"/>
    <path id="Agency_provides_a_fu-3" data-name="Agency provides a fu" d="M3.07,8.313h1.2a1.7,1.7,0,0,0,1.273-.43,1.574,1.574,0,0,0,.414-1.141,1.392,1.392,0,0,0-.41-1.07,1.59,1.59,0,0,0-1.129-.383,1.666,1.666,0,0,0-1.086.355A1.137,1.137,0,0,0,2.9,6.57H.641a2.777,2.777,0,0,1,.48-1.6A3.2,3.2,0,0,1,2.465,3.867a4.485,4.485,0,0,1,1.9-.4A4.253,4.253,0,0,1,7.2,4.332,2.945,2.945,0,0,1,8.219,6.711a2.394,2.394,0,0,1-.477,1.438,3.1,3.1,0,0,1-1.25,1.008,2.826,2.826,0,0,1,1.434,1.031A2.8,2.8,0,0,1,8.4,11.813a2.994,2.994,0,0,1-1.105,2.43,4.445,4.445,0,0,1-2.926.914,4.214,4.214,0,0,1-2.785-.9A2.934,2.934,0,0,1,.5,11.883H2.758a1.308,1.308,0,0,0,.48,1.047,1.771,1.771,0,0,0,1.184.406,1.779,1.779,0,0,0,1.262-.426,1.47,1.47,0,0,0,.457-1.129q0-1.7-1.875-1.7H3.07Zm7.094,5.578a1.137,1.137,0,0,1,.363-.875,1.412,1.412,0,0,1,1.828,0,1.137,1.137,0,0,1,.363.875,1.121,1.121,0,0,1-.359.863,1.435,1.435,0,0,1-1.836,0A1.121,1.121,0,0,1,10.164,13.891ZM27.883,9.68A7.037,7.037,0,0,1,27.32,12.6a4.261,4.261,0,0,1-1.594,1.9,4.4,4.4,0,0,1-6.4-1.887,6.752,6.752,0,0,1-.59-2.832v-.82a6.953,6.953,0,0,1,.57-2.9,4.218,4.218,0,0,1,4-2.594,4.41,4.41,0,0,1,2.41.66A4.253,4.253,0,0,1,27.32,6.043a7.071,7.071,0,0,1,.563,2.918Zm-1.492-.734a5.1,5.1,0,0,0-.812-3.105A2.68,2.68,0,0,0,23.3,4.758,2.651,2.651,0,0,0,21.066,5.84a5,5,0,0,0-.84,3V9.68a5.107,5.107,0,0,0,.824,3.082,2.888,2.888,0,0,0,4.52.063,5.079,5.079,0,0,0,.82-3.035Zm7.6-1.1a4.331,4.331,0,0,0-.711-.055A1.9,1.9,0,0,0,31.352,9v6H29.906V6.547h1.406l.023.977a2.251,2.251,0,0,1,2.016-1.133,1.477,1.477,0,0,1,.641.109ZM36.891,15H35.445V6.547h1.445ZM35.328,4.3a.863.863,0,0,1,.215-.594.807.807,0,0,1,.637-.242.819.819,0,0,1,.641.242.854.854,0,0,1,.219.594.826.826,0,0,1-.219.586.834.834,0,0,1-.641.234.821.821,0,0,1-.637-.234A.834.834,0,0,1,35.328,4.3Zm7.383,10.852a3.693,3.693,0,0,1-2.8-1.129,4.19,4.19,0,0,1-1.078-3.02v-.266a5.073,5.073,0,0,1,.48-2.246A3.748,3.748,0,0,1,40.66,6.949a3.378,3.378,0,0,1,1.871-.559,3.166,3.166,0,0,1,2.563,1.086,4.7,4.7,0,0,1,.914,3.109v.6H40.281a3,3,0,0,0,.73,2.02,2.3,2.3,0,0,0,1.777.77,2.517,2.517,0,0,0,1.3-.312,3.259,3.259,0,0,0,.93-.828l.883.688A3.55,3.55,0,0,1,42.711,15.156Zm-.18-7.578a1.928,1.928,0,0,0-1.469.637A3.1,3.1,0,0,0,40.328,10h4.234V9.891a2.753,2.753,0,0,0-.594-1.707A1.815,1.815,0,0,0,42.531,7.578Zm6.516-1.031.047,1.063a3.08,3.08,0,0,1,2.531-1.219q2.68,0,2.7,3.023V15H52.883V9.406a1.946,1.946,0,0,0-.418-1.352,1.675,1.675,0,0,0-1.277-.437,2.086,2.086,0,0,0-1.234.375,2.546,2.546,0,0,0-.828.984V15H47.68V6.547ZM58.469,4.5V6.547h1.578V7.664H58.469v5.249a1.173,1.173,0,0,0,.211.763.888.888,0,0,0,.719.254,3.5,3.5,0,0,0,.688-.094V15a4.215,4.215,0,0,1-1.109.155,1.8,1.8,0,0,1-1.461-.586,2.517,2.517,0,0,1-.492-1.664V7.664H55.484V6.547h1.539V4.5ZM66.953,15a3.036,3.036,0,0,1-.2-.891,3.225,3.225,0,0,1-2.406,1.047,2.984,2.984,0,0,1-2.051-.707,2.287,2.287,0,0,1-.8-1.793,2.39,2.39,0,0,1,1-2.051,4.733,4.733,0,0,1,2.824-.73h1.406V9.211A1.623,1.623,0,0,0,66.273,8a1.821,1.821,0,0,0-1.336-.449,2.107,2.107,0,0,0-1.3.391,1.151,1.151,0,0,0-.523.945H61.664a2,2,0,0,1,.449-1.223,3.066,3.066,0,0,1,1.219-.934,4.1,4.1,0,0,1,1.691-.344,3.342,3.342,0,0,1,2.289.73,2.635,2.635,0,0,1,.859,2.012v3.891a4.757,4.757,0,0,0,.3,1.852V15Zm-2.4-1.1a2.54,2.54,0,0,0,1.289-.352,2.127,2.127,0,0,0,.883-.914V10.9H65.594q-2.656,0-2.656,1.555a1.316,1.316,0,0,0,.453,1.063A1.742,1.742,0,0,0,64.555,13.9Zm9.969-6.055a4.331,4.331,0,0,0-.711-.055A1.9,1.9,0,0,0,71.883,9v6H70.438V6.547h1.406l.023.977a2.251,2.251,0,0,1,2.016-1.133,1.477,1.477,0,0,1,.641.109ZM85.031,15a3.036,3.036,0,0,1-.2-.891,3.225,3.225,0,0,1-2.406,1.047,2.984,2.984,0,0,1-2.051-.707,2.288,2.288,0,0,1-.8-1.793,2.39,2.39,0,0,1,1-2.051,4.733,4.733,0,0,1,2.824-.73H84.8V9.211A1.623,1.623,0,0,0,84.352,8a1.821,1.821,0,0,0-1.336-.449,2.108,2.108,0,0,0-1.3.391,1.151,1.151,0,0,0-.523.945H79.742a2,2,0,0,1,.449-1.223,3.066,3.066,0,0,1,1.219-.934A4.1,4.1,0,0,1,83.1,6.391a3.342,3.342,0,0,1,2.289.73,2.635,2.635,0,0,1,.859,2.012v3.891a4.757,4.757,0,0,0,.3,1.852V15Zm-2.4-1.1a2.54,2.54,0,0,0,1.289-.352,2.127,2.127,0,0,0,.883-.914V10.9H83.672q-2.656,0-2.656,1.555a1.316,1.316,0,0,0,.453,1.063A1.742,1.742,0,0,0,82.633,13.9ZM90.086,15H88.641V3h1.445ZM4.484,37.977a2.082,2.082,0,0,0,1.352-.469,1.649,1.649,0,0,0,.641-1.172H7.844a2.621,2.621,0,0,1-.5,1.383,3.293,3.293,0,0,1-1.23,1.047,3.55,3.55,0,0,1-1.629.391A3.482,3.482,0,0,1,1.738,38a4.59,4.59,0,0,1-1.02-3.152v-.242a5.089,5.089,0,0,1,.453-2.2,3.451,3.451,0,0,1,1.3-1.492,3.7,3.7,0,0,1,2-.531,3.39,3.39,0,0,1,2.363.852,3.043,3.043,0,0,1,1,2.211H6.477a1.992,1.992,0,0,0-.621-1.348,1.932,1.932,0,0,0-1.379-.527,2.023,2.023,0,0,0-1.707.793,3.724,3.724,0,0,0-.605,2.293v.273a3.65,3.65,0,0,0,.6,2.25A2.033,2.033,0,0,0,4.484,37.977ZM11.039,39H9.594V27h1.445Zm3.883,0H13.477V30.547h1.445ZM13.359,28.3a.863.863,0,0,1,.215-.594.807.807,0,0,1,.637-.242.819.819,0,0,1,.641.242.854.854,0,0,1,.219.594.826.826,0,0,1-.219.586.834.834,0,0,1-.641.234.821.821,0,0,1-.637-.234A.834.834,0,0,1,13.359,28.3Zm7.383,10.852a3.693,3.693,0,0,1-2.8-1.129,4.19,4.19,0,0,1-1.078-3.02v-.266a5.073,5.073,0,0,1,.48-2.246,3.748,3.748,0,0,1,1.344-1.547,3.378,3.378,0,0,1,1.871-.559,3.166,3.166,0,0,1,2.563,1.086,4.7,4.7,0,0,1,.914,3.109v.6H18.313a3,3,0,0,0,.73,2.02,2.3,2.3,0,0,0,1.777.77,2.517,2.517,0,0,0,1.3-.312,3.259,3.259,0,0,0,.93-.828l.883.688A3.55,3.55,0,0,1,20.742,39.156Zm-.18-7.578a1.928,1.928,0,0,0-1.469.637A3.1,3.1,0,0,0,18.359,34h4.234v-.109A2.753,2.753,0,0,0,22,32.184,1.815,1.815,0,0,0,20.563,31.578Zm6.516-1.031.047,1.063a3.08,3.08,0,0,1,2.531-1.219q2.68,0,2.7,3.023V39H30.914V33.406a1.946,1.946,0,0,0-.418-1.352,1.675,1.675,0,0,0-1.277-.437,2.086,2.086,0,0,0-1.234.375,2.546,2.546,0,0,0-.828.984V39H25.711V30.547ZM36.5,28.5v2.047h1.578v1.117H36.5v5.249a1.173,1.173,0,0,0,.211.763.888.888,0,0,0,.719.254,3.5,3.5,0,0,0,.688-.094V39a4.215,4.215,0,0,1-1.109.155,1.8,1.8,0,0,1-1.461-.586,2.517,2.517,0,0,1-.492-1.664V31.664H33.516V30.547h1.539V28.5Zm6.773,10.656a3.693,3.693,0,0,1-2.8-1.129,4.19,4.19,0,0,1-1.078-3.02v-.266a5.073,5.073,0,0,1,.48-2.246,3.748,3.748,0,0,1,1.344-1.547,3.378,3.378,0,0,1,1.871-.559,3.166,3.166,0,0,1,2.563,1.086,4.7,4.7,0,0,1,.914,3.109v.6H40.844a3,3,0,0,0,.73,2.02,2.3,2.3,0,0,0,1.777.77,2.517,2.517,0,0,0,1.3-.312,3.258,3.258,0,0,0,.93-.828l.883.688A3.55,3.55,0,0,1,43.273,39.156Zm-.18-7.578a1.928,1.928,0,0,0-1.469.637A3.1,3.1,0,0,0,40.891,34h4.234v-.109a2.753,2.753,0,0,0-.594-1.707A1.815,1.815,0,0,0,43.094,31.578Zm5.18,6.664a.905.905,0,0,1,.223-.625.848.848,0,0,1,.668-.25.874.874,0,0,1,.676.25.887.887,0,0,1,.23.625.839.839,0,0,1-.23.6.89.89,0,0,1-.676.242.8.8,0,0,1-.891-.844Z" transform="translate(748.884 3287.53)" fill="#12263f"/>
    <path id="Agency_provides_a_fu-4" data-name="Agency provides a fu" d="M7.453,10.719H8.742v1.82H7.453V15H5.2V12.539H.531l-.1-1.422L5.172,3.625H7.453Zm-4.773,0H5.2V6.7l-.148.258Zm7.484,3.172a1.137,1.137,0,0,1,.363-.875,1.412,1.412,0,0,1,1.828,0,1.137,1.137,0,0,1,.363.875,1.121,1.121,0,0,1-.359.863,1.435,1.435,0,0,1-1.836,0A1.121,1.121,0,0,1,10.164,13.891Zm15.4-4.148h-4.93v4.031h5.727V15H19.133V3.625h7.148V4.852H20.633V8.516h4.93Zm5.023,3.3L32.68,6.547h1.477L31.125,15h-1.1L26.961,6.547h1.477ZM40.648,15a3.036,3.036,0,0,1-.2-.891,3.225,3.225,0,0,1-2.406,1.047,2.984,2.984,0,0,1-2.051-.707,2.287,2.287,0,0,1-.8-1.793,2.39,2.39,0,0,1,1-2.051,4.733,4.733,0,0,1,2.824-.73h1.406V9.211A1.623,1.623,0,0,0,39.969,8a1.821,1.821,0,0,0-1.336-.449,2.107,2.107,0,0,0-1.3.391,1.151,1.151,0,0,0-.523.945H35.359a2,2,0,0,1,.449-1.223,3.066,3.066,0,0,1,1.219-.934,4.1,4.1,0,0,1,1.691-.344,3.342,3.342,0,0,1,2.289.73,2.635,2.635,0,0,1,.859,2.012v3.891a4.757,4.757,0,0,0,.3,1.852V15Zm-2.4-1.1a2.54,2.54,0,0,0,1.289-.352,2.127,2.127,0,0,0,.883-.914V10.9H39.289q-2.656,0-2.656,1.555a1.316,1.316,0,0,0,.453,1.063A1.742,1.742,0,0,0,38.25,13.9ZM45.7,15H44.258V3H45.7Zm7.531-.836a3.07,3.07,0,0,1-2.477.992,2.628,2.628,0,0,1-2.059-.785,3.4,3.4,0,0,1-.715-2.324v-5.5H49.43v5.461q0,1.922,1.563,1.922A2.163,2.163,0,0,0,53.2,12.7V6.547h1.445V15H53.266Zm8.82.836a3.036,3.036,0,0,1-.2-.891,3.225,3.225,0,0,1-2.406,1.047,2.984,2.984,0,0,1-2.051-.707,2.287,2.287,0,0,1-.8-1.793,2.39,2.39,0,0,1,1-2.051,4.733,4.733,0,0,1,2.824-.73h1.406V9.211A1.623,1.623,0,0,0,61.375,8a1.821,1.821,0,0,0-1.336-.449,2.107,2.107,0,0,0-1.3.391,1.151,1.151,0,0,0-.523.945H56.766a2,2,0,0,1,.449-1.223,3.066,3.066,0,0,1,1.219-.934,4.1,4.1,0,0,1,1.691-.344,3.342,3.342,0,0,1,2.289.73,2.635,2.635,0,0,1,.859,2.012v3.891a4.757,4.757,0,0,0,.3,1.852V15Zm-2.4-1.1a2.54,2.54,0,0,0,1.289-.352,2.127,2.127,0,0,0,.883-.914V10.9H60.7q-2.656,0-2.656,1.555a1.316,1.316,0,0,0,.453,1.063A1.742,1.742,0,0,0,59.656,13.9Zm9.969-6.055a4.331,4.331,0,0,0-.711-.055A1.9,1.9,0,0,0,66.984,9v6H65.539V6.547h1.406l.023.977a2.251,2.251,0,0,1,2.016-1.133,1.477,1.477,0,0,1,.641.109ZM76.484,15H75.039V3h1.445Zm7.531,0a3.036,3.036,0,0,1-.2-.891,3.225,3.225,0,0,1-2.406,1.047,2.984,2.984,0,0,1-2.051-.707,2.288,2.288,0,0,1-.8-1.793,2.39,2.39,0,0,1,1-2.051,4.733,4.733,0,0,1,2.824-.73h1.406V9.211A1.623,1.623,0,0,0,83.336,8,1.821,1.821,0,0,0,82,7.555a2.108,2.108,0,0,0-1.3.391,1.151,1.151,0,0,0-.523.945H78.727a2,2,0,0,1,.449-1.223,3.066,3.066,0,0,1,1.219-.934,4.1,4.1,0,0,1,1.691-.344,3.342,3.342,0,0,1,2.289.73,2.635,2.635,0,0,1,.859,2.012v3.891a4.757,4.757,0,0,0,.3,1.852V15Zm-2.4-1.1a2.54,2.54,0,0,0,1.289-.352,2.127,2.127,0,0,0,.883-.914V10.9H82.656Q80,10.9,80,12.453a1.316,1.316,0,0,0,.453,1.063A1.742,1.742,0,0,0,81.617,13.9ZM4.6,39.156a3.693,3.693,0,0,1-2.8-1.129,4.19,4.19,0,0,1-1.078-3.02v-.266a5.073,5.073,0,0,1,.48-2.246,3.748,3.748,0,0,1,1.344-1.547,3.378,3.378,0,0,1,1.871-.559,3.166,3.166,0,0,1,2.563,1.086A4.7,4.7,0,0,1,7.9,34.586v.6H2.172a3,3,0,0,0,.73,2.02,2.3,2.3,0,0,0,1.777.77,2.517,2.517,0,0,0,1.3-.312,3.259,3.259,0,0,0,.93-.828l.883.688A3.55,3.55,0,0,1,4.6,39.156Zm-.18-7.578a1.928,1.928,0,0,0-1.469.637A3.1,3.1,0,0,0,2.219,34H6.453v-.109a2.753,2.753,0,0,0-.594-1.707A1.815,1.815,0,0,0,4.422,31.578Zm7.984,2.055,1.875-3.086h1.688L13.2,34.727,16.055,39H14.383L12.43,35.836,10.477,39H8.8l2.852-4.273-2.766-4.18h1.672Zm12.234,1.234a5.062,5.062,0,0,1-.883,3.109,2.829,2.829,0,0,1-2.391,1.18,3.1,3.1,0,0,1-2.422-.977v4.07H17.5v-11.7h1.32l.07.938a2.977,2.977,0,0,1,2.453-1.094,2.882,2.882,0,0,1,2.41,1.148,5.117,5.117,0,0,1,.887,3.2ZM23.2,34.7a3.735,3.735,0,0,0-.609-2.258,1.963,1.963,0,0,0-1.672-.828,2.125,2.125,0,0,0-1.969,1.164V36.82a2.129,2.129,0,0,0,1.984,1.156,1.954,1.954,0,0,0,1.652-.824A4.077,4.077,0,0,0,23.2,34.7Zm6.789,4.453a3.693,3.693,0,0,1-2.8-1.129,4.19,4.19,0,0,1-1.078-3.02v-.266a5.073,5.073,0,0,1,.48-2.246,3.748,3.748,0,0,1,1.344-1.547,3.378,3.378,0,0,1,1.871-.559,3.166,3.166,0,0,1,2.563,1.086,4.7,4.7,0,0,1,.914,3.109v.6H27.555a3,3,0,0,0,.73,2.02,2.3,2.3,0,0,0,1.777.77,2.517,2.517,0,0,0,1.3-.312,3.259,3.259,0,0,0,.93-.828l.883.688A3.55,3.55,0,0,1,29.984,39.156Zm-.18-7.578a1.928,1.928,0,0,0-1.469.637A3.1,3.1,0,0,0,27.6,34h4.234v-.109a2.753,2.753,0,0,0-.594-1.707A1.815,1.815,0,0,0,29.8,31.578Zm9.234.266a4.331,4.331,0,0,0-.711-.055A1.9,1.9,0,0,0,36.4,33v6H34.953V30.547h1.406l.023.977A2.251,2.251,0,0,1,38.4,30.391a1.477,1.477,0,0,1,.641.109ZM41.938,39H40.492V30.547h1.445ZM40.375,28.3a.863.863,0,0,1,.215-.594.807.807,0,0,1,.637-.242.819.819,0,0,1,.641.242.854.854,0,0,1,.219.594.826.826,0,0,1-.219.586.834.834,0,0,1-.641.234.821.821,0,0,1-.637-.234A.834.834,0,0,1,40.375,28.3Zm7.383,10.852a3.693,3.693,0,0,1-2.8-1.129,4.19,4.19,0,0,1-1.078-3.02v-.266a5.073,5.073,0,0,1,.48-2.246,3.748,3.748,0,0,1,1.344-1.547,3.378,3.378,0,0,1,1.871-.559,3.166,3.166,0,0,1,2.563,1.086,4.7,4.7,0,0,1,.914,3.109v.6H45.328a3,3,0,0,0,.73,2.02,2.3,2.3,0,0,0,1.777.77,2.517,2.517,0,0,0,1.3-.312,3.258,3.258,0,0,0,.93-.828l.883.688A3.55,3.55,0,0,1,47.758,39.156Zm-.18-7.578a1.928,1.928,0,0,0-1.469.637A3.1,3.1,0,0,0,45.375,34h4.234v-.109a2.753,2.753,0,0,0-.594-1.707A1.815,1.815,0,0,0,47.578,31.578Zm6.516-1.031.047,1.063a3.08,3.08,0,0,1,2.531-1.219q2.68,0,2.7,3.023V39H57.93V33.406a1.946,1.946,0,0,0-.418-1.352,1.675,1.675,0,0,0-1.277-.437A2.086,2.086,0,0,0,55,31.992a2.546,2.546,0,0,0-.828.984V39H52.727V30.547Zm10.852,7.43a2.082,2.082,0,0,0,1.352-.469,1.649,1.649,0,0,0,.641-1.172H68.3a2.621,2.621,0,0,1-.5,1.383,3.293,3.293,0,0,1-1.23,1.047,3.55,3.55,0,0,1-1.629.391A3.482,3.482,0,0,1,62.2,38a4.59,4.59,0,0,1-1.02-3.152v-.242a5.089,5.089,0,0,1,.453-2.2,3.451,3.451,0,0,1,1.3-1.492,3.7,3.7,0,0,1,2-.531,3.39,3.39,0,0,1,2.363.852,3.043,3.043,0,0,1,1,2.211H66.938a1.992,1.992,0,0,0-.621-1.348,1.932,1.932,0,0,0-1.379-.527,2.023,2.023,0,0,0-1.707.793,3.724,3.724,0,0,0-.605,2.293v.273a3.65,3.65,0,0,0,.6,2.25A2.033,2.033,0,0,0,64.945,37.977ZM71.5,39H70.055V30.547H71.5ZM69.938,28.3a.863.863,0,0,1,.215-.594.807.807,0,0,1,.637-.242.819.819,0,0,1,.641.242.854.854,0,0,1,.219.594.826.826,0,0,1-.219.586.834.834,0,0,1-.641.234.821.821,0,0,1-.637-.234A.834.834,0,0,1,69.938,28.3ZM79.031,39a3.036,3.036,0,0,1-.2-.891,3.225,3.225,0,0,1-2.406,1.047,2.984,2.984,0,0,1-2.051-.707,2.288,2.288,0,0,1-.8-1.793,2.39,2.39,0,0,1,1-2.051,4.733,4.733,0,0,1,2.824-.73H78.8v-.664A1.623,1.623,0,0,0,78.352,32a1.821,1.821,0,0,0-1.336-.449,2.108,2.108,0,0,0-1.3.391,1.151,1.151,0,0,0-.523.945H73.742a2,2,0,0,1,.449-1.223,3.066,3.066,0,0,1,1.219-.934,4.1,4.1,0,0,1,1.691-.344,3.342,3.342,0,0,1,2.289.73,2.635,2.635,0,0,1,.859,2.012v3.891a4.757,4.757,0,0,0,.3,1.852V39Zm-2.4-1.1a2.54,2.54,0,0,0,1.289-.352,2.127,2.127,0,0,0,.883-.914V34.9H77.672q-2.656,0-2.656,1.555a1.316,1.316,0,0,0,.453,1.063A1.742,1.742,0,0,0,76.633,37.9Zm9.492-3.2a4.952,4.952,0,0,1,.922-3.129,3.137,3.137,0,0,1,4.766-.168V27h1.445V39H91.93l-.07-.906a2.943,2.943,0,0,1-2.414,1.063,2.887,2.887,0,0,1-2.395-1.2,5.008,5.008,0,0,1-.926-3.141Zm1.445.164a3.749,3.749,0,0,0,.594,2.25,1.92,1.92,0,0,0,1.641.813A2.108,2.108,0,0,0,91.813,36.7V32.813a2.125,2.125,0,0,0-1.992-1.2,1.929,1.929,0,0,0-1.656.82A4.128,4.128,0,0,0,87.57,34.867Zm11.438,4.289a3.693,3.693,0,0,1-2.8-1.129,4.19,4.19,0,0,1-1.078-3.02v-.266a5.073,5.073,0,0,1,.48-2.246,3.748,3.748,0,0,1,1.344-1.547,3.378,3.378,0,0,1,1.871-.559,3.166,3.166,0,0,1,2.563,1.086,4.7,4.7,0,0,1,.914,3.109v.6H96.578a3,3,0,0,0,.73,2.02,2.3,2.3,0,0,0,1.777.77,2.517,2.517,0,0,0,1.3-.312,3.259,3.259,0,0,0,.93-.828l.883.688A3.55,3.55,0,0,1,99.008,39.156Zm-.18-7.578a1.928,1.928,0,0,0-1.469.637A3.1,3.1,0,0,0,96.625,34h4.234v-.109a2.753,2.753,0,0,0-.594-1.707A1.815,1.815,0,0,0,98.828,31.578ZM105.547,39H104.1V27h1.445Z" transform="translate(939.884 3281.874)" fill="#12263f"/>
    <g id="Grupo_1101074" data-name="Grupo 1101074" transform="translate(748.116 3213)">
      <g id="Elipse_11492" data-name="Elipse 11492" fill="#dcd0e7" stroke="#fff" stroke-width="2">
        <circle cx="30" cy="30" r="30" stroke="none"/>
        <circle cx="30" cy="30" r="29" fill="none"/>
      </g>
      <g id="cliente" transform="translate(3.583 -3.984)">
        <g id="Grupo_1102656" data-name="Grupo 1102656" transform="translate(11.742 17.128)">
          <circle id="Elipse_11503" data-name="Elipse 11503" cx="11.723" cy="11.723" r="11.723" transform="translate(0 0)" fill="#dcd0e7"/>
          <g id="Grupo_1102652" data-name="Grupo 1102652" transform="translate(12.69 6.022)">
            <path id="Trazado_879638" data-name="Trazado 879638" d="M210.312,195.807h7.923a.339.339,0,0,0,.333-.408,4.384,4.384,0,0,0-8.589,0A.339.339,0,0,0,210.312,195.807Z" transform="translate(-209.972 -187.136)" fill="#fff" fill-rule="evenodd"/>
            <path id="Trazado_879639" data-name="Trazado 879639" d="M261.662,195.807h.775a.339.339,0,0,0,.333-.408,4.385,4.385,0,0,0-4.295-3.5q-.2,0-.387.017A4.386,4.386,0,0,1,262,195.4a.339.339,0,0,1-.333.408Z" transform="translate(-254.174 -187.136)" fill="#fff" fill-rule="evenodd"/>
            <circle id="Elipse_11504" data-name="Elipse 11504" cx="2.216" cy="2.216" r="2.216" transform="matrix(0.16, -0.987, 0.987, 0.16, 1.755, 4.375)" fill="#fff"/>
            <path id="Trazado_879640" data-name="Trazado 879640" d="M259.363,137.415a2.216,2.216,0,0,1,0,4.432,2.246,2.246,0,0,1-.309-.021,2.216,2.216,0,0,0,0-4.389A2.222,2.222,0,0,1,259.363,137.415Z" transform="translate(-255.061 -137.089)" fill="#fff" fill-rule="evenodd"/>
          </g>
          <g id="Grupo_1102653" data-name="Grupo 1102653" transform="translate(2.154 5.666)">
            <path id="Trazado_879641" data-name="Trazado 879641" d="M80.81,195.807h7.923a.339.339,0,0,0,.333-.408,4.384,4.384,0,0,0-8.589,0A.339.339,0,0,0,80.81,195.807Z" transform="translate(-80.469 -186.781)" fill="#fff" fill-rule="evenodd"/>
            <path id="Trazado_879642" data-name="Trazado 879642" d="M132.159,195.807h.775a.339.339,0,0,0,.333-.408,4.385,4.385,0,0,0-4.295-3.5q-.2,0-.387.017a4.386,4.386,0,0,1,3.907,3.487.339.339,0,0,1-.333.408Z" transform="translate(-124.671 -186.781)" fill="#fff" fill-rule="evenodd"/>
            <circle id="Elipse_11505" data-name="Elipse 11505" cx="2.216" cy="2.216" r="2.216" transform="translate(1.411 1.698) rotate(-22.514)" fill="#fff"/>
            <path id="Trazado_879643" data-name="Trazado 879643" d="M129.86,137.415a2.216,2.216,0,0,1,0,4.432,2.246,2.246,0,0,1-.309-.021,2.216,2.216,0,0,0,0-4.389A2.223,2.223,0,0,1,129.86,137.415Z" transform="translate(-125.558 -136.733)" fill="#fff" fill-rule="evenodd"/>
          </g>
          <g id="Grupo_1102654" data-name="Grupo 1102654" transform="translate(7.422 8.755)">
            <path id="Trazado_879644" data-name="Trazado 879644" d="M145.561,225.388h7.923a.339.339,0,0,0,.333-.408,4.384,4.384,0,0,0-8.589,0A.339.339,0,0,0,145.561,225.388Z" transform="translate(-145.221 -217.045)" fill="#fff" fill-rule="evenodd"/>
            <path id="Trazado_879645" data-name="Trazado 879645" d="M196.91,225.388h.775a.339.339,0,0,0,.333-.408,4.385,4.385,0,0,0-4.295-3.5q-.2,0-.387.017a4.386,4.386,0,0,1,3.907,3.486A.339.339,0,0,1,196.91,225.388Z" transform="translate(-189.422 -217.045)" fill="#fff" fill-rule="evenodd"/>
            <circle id="Elipse_11506" data-name="Elipse 11506" cx="2.216" cy="2.216" r="2.216" transform="translate(2.086)" fill="#fff"/>
            <path id="Trazado_879646" data-name="Trazado 879646" d="M194.612,167a2.216,2.216,0,1,1,0,4.432,2.244,2.244,0,0,1-.309-.021,2.216,2.216,0,0,0,0-4.389A2.22,2.22,0,0,1,194.612,167Z" transform="translate(-190.31 -166.996)" fill="#fff" fill-rule="evenodd"/>
          </g>
          <g id="Grupo_1102655" data-name="Grupo 1102655" transform="translate(15.276 15.519)">
            <path id="Trazado_879647" data-name="Trazado 879647" d="M315.137,416.057l-3.294-5.705-2.151,1.242,2.522,4.368a1.843,1.843,0,0,0,2.513.673l.3-.174A.3.3,0,0,0,315.137,416.057Z" transform="translate(-304.167 -397.318)" fill="#fff" fill-rule="evenodd"/>
            <path id="Trazado_879648" data-name="Trazado 879648" d="M315.138,416.057l-3.294-5.705-2.151,1.242,1.849-1.068,3.294,5.705a.3.3,0,0,1-.108.4l.3-.174A.3.3,0,0,0,315.138,416.057Z" transform="translate(-304.168 -397.318)" fill="#65788e" fill-rule="evenodd"/>
            <path id="Trazado_879649" data-name="Trazado 879649" d="M412.65,299.644a1.978,1.978,0,0,0-2.7-.724c-.028.016-.259.15-.286.168l1.975,3.422c.028-.015.26-.147.288-.164A1.978,1.978,0,0,0,412.65,299.644Z" transform="translate(-396.003 -294.708)" fill="#fff" fill-rule="evenodd"/>
            <path id="Trazado_879650" data-name="Trazado 879650" d="M412.65,299.644a1.978,1.978,0,0,0-2.7-.724c-.028.016-.259.15-.286.168l.228.394c.027-.017.258-.151.286-.168a1.978,1.978,0,0,1,2.576.533A2,2,0,0,0,412.65,299.644Z" transform="translate(-396.003 -294.708)" fill="#65788e" fill-rule="evenodd"/>
            <path id="Trazado_879651" data-name="Trazado 879651" d="M249.835,263.849l-3.046,1.759a3.347,3.347,0,0,1-3.347-5.8l3.046-1.759c2.281-2.027,3.816-5.036,5.223-7.409a1.016,1.016,0,0,1,1.754.01l6.2,10.74a1.016,1.016,0,0,1-.922,1.524A22.429,22.429,0,0,0,249.835,263.849Z" transform="translate(-241.771 -250.144)" fill="#dcd0e7" fill-rule="evenodd"/>
            <path id="Trazado_879653" data-name="Trazado 879653" d="M359.9,254.408l-2.167-3.754a1.016,1.016,0,0,0-1.754-.01c-.231.39-.465.8-.706,1.214l6.359,11.013c.463.011.924.028,1.381.046a1.016,1.016,0,0,0,.922-1.524l-2.058-3.564Z" transform="translate(-346.039 -250.146)" fill="#fff" fill-rule="evenodd"/>
            <path id="Trazado_879655" data-name="Trazado 879655" d="M249.446,352.471l-2.959-5.126-3.046,1.759a3.347,3.347,0,1,0,3.347,5.8l.9-.517,2.151-1.242Z" transform="translate(-241.77 -339.437)" fill="#fff" fill-rule="evenodd"/>
          </g>
        </g>
        <path id="Trazado_879657" data-name="Trazado 879657" d="M27.027,33.576a3.735,3.735,0,0,0-7.123,0Zm-7.156-2.407H14.636a3.725,3.725,0,0,1,3.56-2.61h0a3.739,3.739,0,0,1,3.067,1.608,5.028,5.028,0,0,0-1.4,1ZM18.2,27.258h0a1.565,1.565,0,1,0-1.566-1.565A1.566,1.566,0,0,0,18.2,27.258Zm3.7.841a1.565,1.565,0,1,0,1.565-1.565A1.567,1.567,0,0,0,21.9,28.1Zm6.832-.841h0a1.565,1.565,0,1,0-1.567-1.565A1.566,1.566,0,0,0,28.735,27.258Zm0,1.3a3.724,3.724,0,0,1,3.56,2.61H27.06a5.037,5.037,0,0,0-1.4-1,3.739,3.739,0,0,1,3.067-1.608h0Zm-.911,6.318H19.107a.65.65,0,0,1-.647-.72,5.023,5.023,0,0,1,.488-1.687H13.839a.65.65,0,0,1-.647-.72,5.016,5.016,0,0,1,2.952-4.058,2.868,2.868,0,1,1,4.1,0c.123.055.244.115.362.179a2.866,2.866,0,0,1,5.714,0c.118-.064.239-.124.362-.179a2.866,2.866,0,1,1,4.1,0,5.017,5.017,0,0,1,2.952,4.058.65.65,0,0,1-.647.72H27.983a5.04,5.04,0,0,1,.487,1.687.65.65,0,0,1-.647.72Zm-4.358,5.047a11.073,11.073,0,0,1,0-22.146h0A11.086,11.086,0,0,1,34.539,28.85h0A11.087,11.087,0,0,1,23.465,39.925Zm.651,1.285v2.457a.651.651,0,0,1-1.3,0V41.209A12.391,12.391,0,0,1,11.109,29.5H8.651a.651.651,0,0,1,0-1.3h2.458A12.39,12.39,0,0,1,22.814,16.494V14.037a.651.651,0,1,1,1.3,0v2.458A12.392,12.392,0,0,1,35.823,28.2H38.28a.651.651,0,0,1,0,1.3H35.823A12.393,12.393,0,0,1,24.116,41.209Zm18.859-6.594a.671.671,0,0,0,.168.022.653.653,0,0,0,.629-.483l.361-1.348a.651.651,0,1,0-1.258-.337l-.361,1.348a.651.651,0,0,0,.461.8ZM46,36.888a.655.655,0,0,0,.325-.087l1.209-.7a.651.651,0,1,0-.651-1.127l-1.209.7A.651.651,0,0,0,46,36.888Zm1.873,2.7-1.348-.361a.651.651,0,1,0-.337,1.257l1.348.362a.673.673,0,0,0,.168.022.651.651,0,0,0,.168-1.28ZM44.35,44.221l-6.2-10.739a.344.344,0,0,0-.314-.183h0a.343.343,0,0,0-.313.179c-.169.286-.339.579-.515.882l5.989,10.373c.341.01.683.023,1.026.036a.365.365,0,0,0,.331-.548Zm-7.1,7.184-2.4-4.163-1.023.59,1.809,3.134a2.153,2.153,0,0,0,.722.552,1.183,1.183,0,0,0,.9-.114Zm-3.054-5.29-2.7-4.671-2.482,1.433a2.7,2.7,0,0,0,2.7,4.67Zm1.183-.555a19.309,19.309,0,0,1,6.1-.85L36.25,35.658a23.424,23.424,0,0,1-3.692,5.021Zm6.453-8.308a1.325,1.325,0,0,1,1.4,1.664,1.331,1.331,0,0,1-.2.423Zm3.648,6.318a1.668,1.668,0,0,1-1.512,2.5,23.42,23.42,0,0,0-7.922.644l2.657,4.6a.651.651,0,0,1-.237.889l-.558.321a2.463,2.463,0,0,1-1.238.333,2.507,2.507,0,0,1-.651-.086A2.471,2.471,0,0,1,34.5,51.617l-1.809-3.134-.332.192a3.958,3.958,0,0,1-1.985.534,4.034,4.034,0,0,1-1.047-.139,4,4,0,0,1-.966-7.32l2.988-1.725a24.656,24.656,0,0,0,4.384-6.074c.228-.4.445-.77.662-1.137A1.652,1.652,0,0,1,37.832,32h.01a1.65,1.65,0,0,1,1.434.834l1.87,3.239a2.629,2.629,0,0,1,2.57,4.451ZM14.224,41.781H10.536V38.093a.651.651,0,0,0-1.3,0v4.339a.651.651,0,0,0,.651.651h4.339a.651.651,0,1,0,0-1.3ZM9.886,20.261a.651.651,0,0,0,.651-.651V15.923h3.688a.651.651,0,1,0,0-1.3H9.886a.651.651,0,0,0-.651.651V19.61A.65.65,0,0,0,9.886,20.261Zm22.17-4.99a.651.651,0,0,0,.651.651H36.4V19.61a.651.651,0,1,0,1.3,0V15.272a.651.651,0,0,0-.651-.651H32.706A.651.651,0,0,0,32.056,15.272Z" transform="translate(0 0)" fill-rule="evenodd"/>
      </g>
    </g>
    <g id="Grupo_1101072" data-name="Grupo 1101072" transform="translate(537.616 3213)">
      <g id="Elipse_11492-2" data-name="Elipse 11492" fill="#dcd0e7" stroke="#fff" stroke-width="2">
        <circle cx="30" cy="30" r="30" stroke="none"/>
        <circle cx="30" cy="30" r="29" fill="none"/>
      </g>
      <g id="la-satisfaccion-del-cliente" transform="translate(9.585 9.585)">
        <g id="Grupo_1102727" data-name="Grupo 1102727" transform="translate(1.626 1.626)">
          <g id="Grupo_1102707" data-name="Grupo 1102707" transform="translate(21.294 30.15)">
            <path id="Trazado_879727" data-name="Trazado 879727" d="M44.856,50.14,47.511,52.8A16.21,16.21,0,0,1,36,57.568V53.81a12.487,12.487,0,0,0,8.856-3.67Z" transform="translate(-36 -50.14)" fill="#dcd0e7"/>
          </g>
          <g id="Grupo_1102708" data-name="Grupo 1102708" transform="translate(13.779 32.091)">
            <path id="Trazado_879728" data-name="Trazado 879728" d="M31.516,54.969v3.758a16.212,16.212,0,0,1-7.321-1.735L24,56.221a7.38,7.38,0,0,0,1.159-2.981h.006a12.479,12.479,0,0,0,6.351,1.729Z" transform="translate(-24 -53.24)" fill="#dcd0e7"/>
          </g>
          <g id="Grupo_1102709" data-name="Grupo 1102709" transform="translate(30.15 21.294)">
            <path id="Trazado_879729" data-name="Trazado 879729" d="M53.81,36h3.758A16.21,16.21,0,0,1,52.8,47.511L50.14,44.856A12.487,12.487,0,0,0,53.81,36Z" transform="translate(-50.14 -36)" fill="#fff"/>
          </g>
          <g id="Grupo_1102710" data-name="Grupo 1102710" transform="translate(30.15 9.783)">
            <path id="Trazado_879730" data-name="Trazado 879730" d="M57.568,29.131H53.81a12.487,12.487,0,0,0-3.67-8.856L52.8,17.62A16.21,16.21,0,0,1,57.568,29.131Z" transform="translate(-50.14 -17.62)" fill="#fff"/>
          </g>
          <g id="Grupo_1102711" data-name="Grupo 1102711" transform="translate(15.839 5.01)">
            <path id="Trazado_879731" data-name="Trazado 879731" d="M32.745,13.758a12.529,12.529,0,0,0-5.173,1.115,2.1,2.1,0,0,0-.282-.451,12.284,12.284,0,0,0,.445-3.269v-.37a16.312,16.312,0,0,1,16.522,3.99L41.6,17.428A12.487,12.487,0,0,0,32.745,13.758Z" transform="translate(-27.29 -10)" fill="#fff"/>
          </g>
          <g id="Grupo_1102712" data-name="Grupo 1102712" transform="translate(1.253)">
            <path id="Trazado_879732" data-name="Trazado 879732" d="M12.142,7.01H9.01A2.5,2.5,0,0,0,6.505,9.516v1.253H5.879a1.871,1.871,0,0,0-1.434.664A12.284,12.284,0,0,1,4,8.163,6.158,6.158,0,0,1,10.163,2h7.616a1.256,1.256,0,0,1,1.253,1.253v4.91a12.284,12.284,0,0,1-.445,3.269,1.871,1.871,0,0,0-1.434-.664h-.626V9.516a1.256,1.256,0,0,0-1.253-1.253h-.626A3.137,3.137,0,0,1,12.142,7.01Z" transform="translate(-4 -2)" fill="#fff"/>
          </g>
          <g id="Grupo_1102713" data-name="Grupo 1102713" transform="translate(7.553 18.789)">
            <path id="Trazado_879733" data-name="Trazado 879733" d="M16.49,32.733,15.9,34.505H14.649l-.589-1.772L15.275,32Z" transform="translate(-14.06 -32)" fill="#dcd0e7"/>
          </g>
          <g id="Grupo_1102714" data-name="Grupo 1102714" transform="translate(8.768 17.981)">
            <path id="Trazado_879734" data-name="Trazado 879734" d="M21.01,35.276a1.256,1.256,0,0,0-1.253,1.253V35.276a1.262,1.262,0,0,0-1.253-1.253,1.256,1.256,0,0,0-1.253,1.253A1.262,1.262,0,0,0,16,34.023h.626l.589-1.772L19.131,33.4l.539-2.687a8.773,8.773,0,0,1,5.1,7.973v.351H22.263V36.528a1.262,1.262,0,0,0-1.253-1.253Z" transform="translate(-16 -30.71)" fill="#dcd0e7"/>
          </g>
          <g id="Grupo_1102715" data-name="Grupo 1102715" transform="translate(0.163 17.812)">
            <path id="Trazado_879735" data-name="Trazado 879735" d="M7.108,31.417v8.092a.678.678,0,0,1-1.347.113l-.182-1.1a2.5,2.5,0,0,0-.852-1.5,2.469,2.469,0,0,0-1.616-.595,1,1,0,0,0-.846.457H2.26A8.805,8.805,0,0,1,7.577,30.44a1.248,1.248,0,0,0-.47.977Z" transform="translate(-2.26 -30.44)" fill="#dcd0e7"/>
          </g>
          <g id="Grupo_1102716" data-name="Grupo 1102716" transform="translate(7.265 18.037)">
            <path id="Trazado_879736" data-name="Trazado 879736" d="M15.1,31.552l-1.215.733-.038.019v-.752A1.26,1.26,0,0,0,13.6,30.8Z" transform="translate(-13.6 -30.8)" fill="#ffc729"/>
          </g>
          <g id="Grupo_1102717" data-name="Grupo 1102717" transform="translate(8.768 17.536)">
            <path id="Trazado_879737" data-name="Trazado 879737" d="M19.67,30.438v.006l-.539,2.687-1.916-1.146L16,31.253,18.505,30a9.279,9.279,0,0,1,1.165.438Z" transform="translate(-16 -30)" fill="#dcd0e7"/>
          </g>
          <g id="Grupo_1102718" data-name="Grupo 1102718" transform="translate(20.042 12.526)">
            <path id="Trazado_879738" data-name="Trazado 879738" d="M34,28.263v-5.01A1.256,1.256,0,0,1,35.253,22h5.01a1.228,1.228,0,0,1,.933.426,1.215,1.215,0,0,1,.319.827v5.01a1.256,1.256,0,0,1-1.253,1.253h-5.01A1.256,1.256,0,0,1,34,28.263Z" transform="translate(-34 -22)" fill="#fff"/>
          </g>
          <g id="Grupo_1102719" data-name="Grupo 1102719" transform="translate(20.042 22.547)">
            <path id="Trazado_879739" data-name="Trazado 879739" d="M34,44.263v-5.01A1.256,1.256,0,0,1,35.253,38h5.01a1.228,1.228,0,0,1,.933.426,1.215,1.215,0,0,1,.319.827v5.01a1.256,1.256,0,0,1-1.253,1.253h-5.01A1.256,1.256,0,0,1,34,44.263Z" transform="translate(-34 -38)" fill="#fff"/>
          </g>
          <g id="Grupo_1102720" data-name="Grupo 1102720" transform="translate(3.131 35.073)">
            <path id="Trazado_879740" data-name="Trazado 879740" d="M17.841,58.77l.432,1.735H7L7.626,58H17.647Z" transform="translate(-7 -58)" fill="#dcd0e7"/>
          </g>
          <g id="Grupo_1102721" data-name="Grupo 1102721" transform="translate(0 17.536)">
            <path id="Trazado_879741" data-name="Trazado 879741" d="M14.526,36.263a1.256,1.256,0,0,1,1.253-1.253,1.262,1.262,0,0,1,1.253,1.253V43.4a7.169,7.169,0,0,1-.094,1.159,7.38,7.38,0,0,1-1.159,2.981H5.758l-1.2-1.61a4.3,4.3,0,0,1-.833-2.01L3.559,42.8A18.113,18.113,0,0,0,2.445,38.63l-.37-.927A1.044,1.044,0,0,1,2,37.315v-.038a1.008,1.008,0,0,1,.169-.557,1,1,0,0,1,.846-.457,2.469,2.469,0,0,1,1.616.595,2.5,2.5,0,0,1,.852,1.5l.182,1.1a.678.678,0,0,0,1.347-.113V31.253a1.248,1.248,0,0,1,.47-.977A1.265,1.265,0,0,1,8.263,30a1.225,1.225,0,0,1,.883.37c.044.044.081.088.119.132a1.26,1.26,0,0,1,.251.752V35.01a1.256,1.256,0,0,1,1.253-1.253,1.262,1.262,0,0,1,1.253,1.253,1.256,1.256,0,0,1,1.253-1.253,1.262,1.262,0,0,1,1.253,1.253Z" transform="translate(-2 -30)" fill="#fff"/>
          </g>
          <g id="Grupo_1102722" data-name="Grupo 1102722" transform="translate(13.779 8.768)">
            <path id="Trazado_879742" data-name="Trazado 879742" d="M26.342,17.115a1.838,1.838,0,0,1,.163.764,1.882,1.882,0,0,1-1.879,1.879H24V16h.626a1.871,1.871,0,0,1,1.434.664,2.1,2.1,0,0,1,.282.451Z" transform="translate(-24 -16)" fill="#fff"/>
          </g>
          <g id="Grupo_1102723" data-name="Grupo 1102723" transform="translate(6.263 16.209)">
            <path id="Trazado_879743" data-name="Trazado 879743" d="M15.758,27.955a3.608,3.608,0,0,0,.739-.075l.514,1.328L14.505,30.46,13,29.709c-.038-.044-.075-.088-.119-.132a1.225,1.225,0,0,0-.883-.37l.514-1.328a3.608,3.608,0,0,0,.739.075Z" transform="translate(-12 -27.88)" fill="#dcd0e7"/>
          </g>
          <g id="Grupo_1102724" data-name="Grupo 1102724" transform="translate(3.758 5.01)">
            <path id="Trazado_879744" data-name="Trazado 879744" d="M18.021,13.758v3.758A3.751,3.751,0,0,1,15,21.2a3.608,3.608,0,0,1-.739.075H11.758a3.608,3.608,0,0,1-.739-.075A3.751,3.751,0,0,1,8,17.516v-5.01A2.5,2.5,0,0,1,10.505,10h3.131a3.137,3.137,0,0,0,2.505,1.253h.626a1.256,1.256,0,0,1,1.253,1.253Z" transform="translate(-8 -10)" fill="#fff"/>
          </g>
          <g id="Grupo_1102725" data-name="Grupo 1102725" transform="translate(1.253 8.768)">
            <path id="Trazado_879745" data-name="Trazado 879745" d="M6.505,16v3.758H5.879a1.879,1.879,0,1,1,0-3.758Z" transform="translate(-4 -16)" fill="#fff"/>
          </g>
          <g id="Grupo_1102726" data-name="Grupo 1102726" transform="translate(6.263 11.273)">
            <path id="Trazado_879746" data-name="Trazado 879746" d="M12,20h5.01A2.505,2.505,0,1,1,12,20Z" transform="translate(-12 -20)" fill="#dcd0e7"/>
          </g>
        </g>
        <g id="Grupo_1102728" data-name="Grupo 1102728" transform="translate(1 1)">
          <ellipse id="Elipse_11516" data-name="Elipse 11516" cx="0.472" cy="0.945" rx="0.472" ry="0.945" transform="translate(6.614 8.595)"/>
          <ellipse id="Elipse_11517" data-name="Elipse 11517" cx="0.472" cy="0.945" rx="0.472" ry="0.945" transform="translate(11.338 8.595)"/>
          <path id="Trazado_879747" data-name="Trazado 879747" d="M17.263,19.626V19H11v.626a3.131,3.131,0,0,0,6.263,0Zm-4.9.626H15.9a1.879,1.879,0,0,1-3.543,0Z" transform="translate(-4.737 -7.727)"/>
          <path id="Trazado_879748" data-name="Trazado 879748" d="M22.92,6.01a16.933,16.933,0,0,0-4.384.586V2.879A1.881,1.881,0,0,0,16.657,1H9.04A6.8,6.8,0,0,0,2.253,7.788a12.81,12.81,0,0,0,.4,3.142,2.5,2.5,0,0,0,2.107,3.849h.05a4.391,4.391,0,0,0,2.768,3.463l-.138.356a1.863,1.863,0,0,0-.642.3,9.377,9.377,0,0,0-5.6,6.8A1.7,1.7,0,0,0,1,26.476a1.663,1.663,0,0,0,.12.623l.371.928a17.509,17.509,0,0,1,1.075,4.02l.16,1.123a5.02,5.02,0,0,0,.952,2.3L4.7,36.836,3.955,39.83H16.833l-.315-1.26a16.741,16.741,0,0,0,6.4,1.26,16.91,16.91,0,1,0,0-33.82ZM14.706,23.684a1.877,1.877,0,0,0-.627-.963l.437-2.181A8.1,8.1,0,0,1,18.532,27.3H17.284V25.425a1.871,1.871,0,0,0-2.578-1.74ZM12.945,19.84c.136.045.273.088.405.14l-.264,1.32L11.7,20.465ZM10.22,22.294l-.29-.869.465-.279.465.279-.29.87Zm1.74-.209.463.278a1.867,1.867,0,0,0-.666.329Zm5.324,10.477V28.557h2.505V27.58a9.348,9.348,0,0,0-6.411-8.915l-.165-.423a4.391,4.391,0,0,0,2.768-3.463h.05a2.508,2.508,0,0,0,2.505-2.505,2.541,2.541,0,0,0-.039-.386,11.895,11.895,0,1,1-1.259,21.484,8.083,8.083,0,0,0,.045-.809ZM16.031,11.021a1.253,1.253,0,0,1,0,2.505Zm7.516,25.02a13.078,13.078,0,0,0,8.205-3.4l1.781,1.781a15.6,15.6,0,0,1-9.986,4.143Zm9.091-4.288a13.081,13.081,0,0,0,3.4-8.206h2.521a15.6,15.6,0,0,1-4.143,9.987Zm3.4-9.458a13.081,13.081,0,0,0-3.4-8.206l1.781-1.781a15.6,15.6,0,0,1,4.143,9.987ZM33.534,11.422,31.752,13.2a13.106,13.106,0,0,0-13.544-2.563A12.824,12.824,0,0,0,18.533,7.9a15.583,15.583,0,0,1,15,3.524Zm-30.028.852a1.254,1.254,0,0,1,1.253-1.253v2.505A1.254,1.254,0,0,1,3.505,12.273ZM6.01,14.152V9.142A1.878,1.878,0,0,1,7.825,7.269a4.842,4.842,0,0,0,1.6,1.767l.695-1.042a3.586,3.586,0,0,1-1.6-2.989V4.758H7.263v.247a4.863,4.863,0,0,0,.122,1.057,3.128,3.128,0,0,0-2.627,3.08v.626A2.485,2.485,0,0,0,3.722,10a11.583,11.583,0,0,1-.217-2.211A5.542,5.542,0,0,1,9.04,2.253h7.617a.627.627,0,0,1,.626.626V7.788A11.583,11.583,0,0,1,17.067,10a2.485,2.485,0,0,0-1.036-.23V9.142a1.881,1.881,0,0,0-1.879-1.879h-.626a2.508,2.508,0,0,1-2.505-2.505H9.768a3.762,3.762,0,0,0,3.758,3.758h.626a.627.627,0,0,1,.626.626v5.01a3.135,3.135,0,0,1-3.131,3.131H9.142A3.135,3.135,0,0,1,6.01,14.152Zm3.131,4.384h2.505c.111,0,.221-.009.33-.017l.132.338-1.714.857-1.122-.561a1.874,1.874,0,0,0-.547-.413l.086-.222C8.921,18.528,9.03,18.536,9.142,18.536ZM6.01,20.725v7.78c0,.054-.1.061-.1.009l-.184-1.1a3.111,3.111,0,0,0-2.977-2.6A8.1,8.1,0,0,1,6.01,20.725ZM3.966,32.993l-.16-1.124a18.765,18.765,0,0,0-1.151-4.308l-.371-.929a.469.469,0,0,1-.031-.194.387.387,0,0,1,.387-.387,1.869,1.869,0,0,1,1.849,1.566l.184,1.1a1.3,1.3,0,0,0,2.591-.215v-8.09a.626.626,0,0,1,1.253,0v8.142H9.768V24.173a.626.626,0,1,1,1.253,0v4.384h1.253V24.173a.626.626,0,1,1,1.253,0v4.384h1.253V25.426a.626.626,0,0,1,1.253,0v7.137a6.8,6.8,0,0,1-.976,3.51H5.7L4.68,34.717a3.77,3.77,0,0,1-.714-1.724ZM5.56,38.578l.313-1.253h9.042l.313,1.253ZM16.076,36.8A8.074,8.074,0,0,0,17,34.667a13.141,13.141,0,0,0,5.293,1.385V38.56a15.451,15.451,0,0,1-6.162-1.532Z" transform="translate(-1 -1)"/>
          <path id="Trazado_879749" data-name="Trazado 879749" d="M37.179,24.464l-.886.886,2.389,2.389,4.191-5.588-1-.752-3.324,4.433Z" transform="translate(-14.189 -8.624)"/>
          <path id="Trazado_879750" data-name="Trazado 879750" d="M34.879,29.768h5.01a1.881,1.881,0,0,0,1.879-1.879V25.384H40.516v2.505a.627.627,0,0,1-.626.626h-5.01a.627.627,0,0,1-.626-.626v-5.01a.627.627,0,0,1,.626-.626H38.01V21H34.879A1.881,1.881,0,0,0,33,22.879v5.01A1.881,1.881,0,0,0,34.879,29.768Z" transform="translate(-12.958 -8.474)"/>
          <path id="Trazado_879751" data-name="Trazado 879751" d="M38.547,41.833l-1.368-1.368-.886.886,2.389,2.389,4.191-5.588-1-.752Z" transform="translate(-14.189 -14.603)"/>
          <path id="Trazado_879752" data-name="Trazado 879752" d="M39.889,45.768a1.881,1.881,0,0,0,1.879-1.879V41.384H40.516v2.505a.627.627,0,0,1-.626.626h-5.01a.627.627,0,0,1-.626-.626v-5.01a.627.627,0,0,1,.626-.626H38.01V37H34.879A1.881,1.881,0,0,0,33,38.879v5.01a1.881,1.881,0,0,0,1.879,1.879Z" transform="translate(-12.958 -14.453)"/>
        </g>
      </g>
    </g>
    <g id="Grupo_1102616" data-name="Grupo 1102616" transform="translate(1149.116 3209.156)">
      <g id="Elipse_11492-3" data-name="Elipse 11492" fill="#dcd0e7" stroke="#fff" stroke-width="2">
        <circle cx="30" cy="30" r="30" stroke="none"/>
        <circle cx="30" cy="30" r="29" fill="none"/>
      </g>
      <g id="apoyo-tecnico" transform="translate(12.507 12.215)">
        <g id="Grupo_1102678" data-name="Grupo 1102678" transform="translate(0.513 0.825)">
          <g id="Grupo_1102677" data-name="Grupo 1102677">
            <g id="Grupo_1102669" data-name="Grupo 1102669">
              <g id="Grupo_1102657" data-name="Grupo 1102657" transform="translate(22.36)">
                <path id="Trazado_879658" data-name="Trazado 879658" d="M344.846,7.812h-8.619a1.49,1.49,0,0,0-1.49,1.49v4.311a1.49,1.49,0,0,0,1.49,1.49.87.87,0,0,1,.87.87V18.64a.334.334,0,0,0,.62.172l1.97-3.285a.871.871,0,0,1,.746-.423h4.413a1.49,1.49,0,0,0,1.49-1.49V9.3A1.49,1.49,0,0,0,344.846,7.812Z" transform="translate(-334.736 -7.812)" fill="#dcd0e7"/>
              </g>
              <g id="Grupo_1102668" data-name="Grupo 1102668" transform="translate(0 15.288)">
                <g id="Grupo_1102667" data-name="Grupo 1102667">
                  <g id="Grupo_1102666" data-name="Grupo 1102666">
                    <g id="Grupo_1102661" data-name="Grupo 1102661" transform="translate(9.14)">
                      <g id="Grupo_1102660" data-name="Grupo 1102660">
                        <g id="Grupo_1102659" data-name="Grupo 1102659">
                          <g id="Grupo_1102658" data-name="Grupo 1102658">
                            <path id="Trazado_879660" data-name="Trazado 879660" d="M149.387,237.115a1.492,1.492,0,0,1-1.21-1.466v-4.1h-5.705v4.1a1.5,1.5,0,0,1-1.21,1.465S149.773,237.19,149.387,237.115Z" transform="translate(-141.261 -231.551)" fill="#dcd0e7"/>
                          </g>
                        </g>
                      </g>
                    </g>
                    <g id="Grupo_1102665" data-name="Grupo 1102665" transform="translate(0.41 5.834)">
                      <g id="Grupo_1102664" data-name="Grupo 1102664">
                        <g id="Grupo_1102663" data-name="Grupo 1102663">
                          <g id="Grupo_1102662" data-name="Grupo 1102662">
                            <path id="Trazado_879661" data-name="Trazado 879661" d="M31.939,316.964c-.406-.078-11.29,0-11.29,0a8.814,8.814,0,0,0-7.148,8.655v2.907a1.194,1.194,0,0,0,1.194,1.194h23.2a1.194,1.194,0,0,0,1.194-1.194v-2.907A8.814,8.814,0,0,0,31.939,316.964Z" transform="translate(-13.501 -316.93)" fill="#dcd0e7"/>
                          </g>
                        </g>
                      </g>
                    </g>
                    <path id="Trazado_879662" data-name="Trazado 879662" d="M61.658,322.553H40.841l-.552-10.173a1.573,1.573,0,0,1,1.571-1.658H60.639a1.573,1.573,0,0,1,1.571,1.658Z" transform="translate(-38.046 -305.312)" fill="#dcd0e7"/>
                    <path id="Trazado_879663" data-name="Trazado 879663" d="M277.267,310.722H272.8a1.573,1.573,0,0,1,1.571,1.658l-.552,10.173h4.464l.552-10.173A1.573,1.573,0,0,0,277.267,310.722Z" transform="translate(-254.674 -305.312)" fill="#dcd0e7"/>
                    <path id="Trazado_879664" data-name="Trazado 879664" d="M32.8,471.934H8.6a1.1,1.1,0,0,0,0,2.2H32.8a1.1,1.1,0,0,0,0-2.2Z" transform="translate(-7.5 -455.508)" fill="#dcd0e7"/>
                    <path id="Trazado_879665" data-name="Trazado 879665" d="M316.509,471.934h-3.395v1.1a1.1,1.1,0,0,1-1.1,1.1h4.5a1.1,1.1,0,0,0,0-2.2Z" transform="translate(-291.205 -455.508)" fill="#dcd0e7"/>
                  </g>
                </g>
                <path id="Trazado_879666" data-name="Trazado 879666" d="M159.48,372.472a3.651,3.651,0,0,1,.943-2.442l.014-.015a3.126,3.126,0,0,0-.789-4.8.269.269,0,0,0-.4.233v2.325a.706.706,0,0,1-.706.706h-.868a.706.706,0,0,1-.706-.706v-2.325a.269.269,0,0,0-.4-.233,3.126,3.126,0,0,0-.789,4.8l.014.015a3.651,3.651,0,0,1,.943,2.442Z" transform="translate(-144.902 -356.046)" fill="#fff"/>
              </g>
            </g>
            <g id="Grupo_1102676" data-name="Grupo 1102676" transform="translate(5.349 1.922)">
              <g id="Grupo_1102675" data-name="Grupo 1102675">
                <g id="Grupo_1102674" data-name="Grupo 1102674">
                  <g id="Grupo_1102673" data-name="Grupo 1102673">
                    <path id="Trazado_879667" data-name="Trazado 879667" d="M111.42,56.709l-.381,0-.006-1.536a5.593,5.593,0,0,0-11.183.048l0,1.083,0,.453-.381,0a1.018,1.018,0,0,0-1.008,1.029l0,1.135a1.018,1.018,0,0,0,1.016,1.02l.383,0a5.293,5.293,0,0,0,1.78,3.882,5.675,5.675,0,0,0,7.653-.033,5.294,5.294,0,0,0,1.748-3.9l.383,0a1.018,1.018,0,0,0,1.008-1.029l0-1.135a1.018,1.018,0,0,0-1.016-1.02Z" transform="translate(-97.599 -48.765)" fill="#fff"/>
                    <path id="Trazado_879668" data-name="Trazado 879668" d="M186.375,61.492a1.018,1.018,0,0,0-1.016-1.02l-.381,0-.006-1.536a5.434,5.434,0,0,0-3.88-5.194,5.37,5.37,0,0,1,.741,2.734l.018,7.18a5.294,5.294,0,0,1-1.748,3.9,5.983,5.983,0,0,1-2.275,1.271,5.62,5.62,0,0,0,5.414-1.271,5.294,5.294,0,0,0,1.748-3.9l.383,0a1.018,1.018,0,0,0,1.008-1.029Z" transform="translate(-171.538 -52.528)" fill="#fff"/>
                    <g id="Grupo_1102672" data-name="Grupo 1102672" transform="translate(0 7.019)">
                      <g id="Grupo_1102670" data-name="Grupo 1102670" transform="translate(13.447)">
                        <path id="Trazado_879669" data-name="Trazado 879669" d="M282.575,138.669v4.225H283.7a1.139,1.139,0,0,0,1.139-1.139v-1.947a1.139,1.139,0,0,0-1.139-1.139Z" transform="translate(-282.575 -138.669)" fill="#fff"/>
                      </g>
                      <g id="Grupo_1102671" data-name="Grupo 1102671">
                        <path id="Trazado_879670" data-name="Trazado 879670" d="M88.039,138.669v4.225H86.917a1.139,1.139,0,0,1-1.139-1.139v-1.947a1.139,1.139,0,0,1,1.139-1.139Z" transform="translate(-85.778 -138.669)" fill="#fff"/>
                      </g>
                    </g>
                    <path id="Trazado_879671" data-name="Trazado 879671" d="M111.556,38.224H111.5a.576.576,0,0,1-.576-.576,1.705,1.705,0,0,0-1.705-1.705h-5.427a4.374,4.374,0,0,0-4.373,4.373v2.89a1,1,0,0,0,.67.942l1.077.375a.579.579,0,0,0,.769-.548l0-2.038a1.784,1.784,0,0,1,1.765-1.8h.021a2.832,2.832,0,0,1,.879.136,5,5,0,0,0,1.549.257h.388a5,5,0,0,0,1.549-.257,2.834,2.834,0,0,1,.879-.136h.021a1.784,1.784,0,0,1,1.765,1.8l0,2.038a.579.579,0,0,0,.769.547l1.077-.375a1,1,0,0,0,.67-.942V39.929A1.705,1.705,0,0,0,111.556,38.224Z" transform="translate(-98.484 -35.943)" fill="#fff"/>
                    <path id="Trazado_879672" data-name="Trazado 879672" d="M215.676,38.224h-.057a.576.576,0,0,1-.576-.576,1.705,1.705,0,0,0-1.705-1.705h-2.164a5.33,5.33,0,0,1,1.726,3.95v.249c.06,0,.121-.006.181-.006h.021a1.784,1.784,0,0,1,1.765,1.8l0,2.038a.579.579,0,0,0,.769.547l1.077-.375a1,1,0,0,0,.67-.942V39.929A1.705,1.705,0,0,0,215.676,38.224Z" transform="translate(-202.605 -35.943)" fill="#fff"/>
                    <path id="Trazado_879673" data-name="Trazado 879673" d="M227.673,221.847h-1.286a.889.889,0,1,1,0-1.777h1.286a.889.889,0,0,1,0,1.777Z" transform="translate(-215.951 -207.488)" fill="#fff"/>
                  </g>
                </g>
              </g>
            </g>
          </g>
        </g>
        <g id="Grupo_1102680" data-name="Grupo 1102680" transform="translate(0 0.313)">
          <g id="Grupo_1102679" data-name="Grupo 1102679" transform="translate(0 0)">
            <path id="Trazado_879674" data-name="Trazado 879674" d="M402.962,37.252h-4.472a.512.512,0,1,0,0,1.025h4.472a.512.512,0,0,0,0-1.025Z" transform="translate(-370.784 -34.728)"/>
            <path id="Trazado_879675" data-name="Trazado 879675" d="M361.328,38.277h.545a.512.512,0,1,0,0-1.025h-.545a.512.512,0,0,0,0,1.025Z" transform="translate(-336.161 -34.728)"/>
            <path id="Trazado_879676" data-name="Trazado 879676" d="M361.328,73.509h7.011a.512.512,0,0,0,0-1.025h-7.011a.512.512,0,0,0,0,1.025Z" transform="translate(-336.161 -67.552)"/>
            <path id="Trazado_879677" data-name="Trazado 879677" d="M27.021,56.843a9.36,9.36,0,0,0-1.928-5.678l.095-1.75a2.084,2.084,0,0,0-2.083-2.2H17.5a.978.978,0,0,1-.415-.8V44.988A5.807,5.807,0,0,0,19.01,43.02H20a2.083,2.083,0,0,0,2.081-2.081V37.112a1.651,1.651,0,0,0-.932-1.486V32.94a2.22,2.22,0,0,0-2.218-2.218h-.057a.064.064,0,0,1-.063-.063,2.22,2.22,0,0,0-2.218-2.218H11.167a4.892,4.892,0,0,0-4.886,4.886v2.3a1.651,1.651,0,0,0-.932,1.486v1.946A1.653,1.653,0,0,0,7,40.71h.662A5.755,5.755,0,0,0,9.577,44.4a7.028,7.028,0,0,0,.774.581v1.437a.979.979,0,0,1-.416.8H4.326a2.084,2.084,0,0,0-2.083,2.2l.095,1.75A9.36,9.36,0,0,0,.41,56.843v1.93a1.613,1.613,0,0,0,1.2,2.688h24.2a1.613,1.613,0,0,0,1.2-2.688Zm-1.025,0v1.4a1.622,1.622,0,0,0-.179-.01H24.709L25,52.9a8.328,8.328,0,0,1,1,3.94ZM21,36.862a.623.623,0,0,1,.053.25v1.946a.627.627,0,0,1-.627.627h-.609V37.753l.316-.11A1.51,1.51,0,0,0,21,36.862ZM17.583,42.8H16.3a.376.376,0,1,1,0-.752h1.286a.376.376,0,1,1,0,.752ZM20,42h-.518a6.032,6.032,0,0,0,.3-1.285h.651a1.643,1.643,0,0,0,.627-.124v.353A1.057,1.057,0,0,1,20,42Zm-12.7-8.668a3.865,3.865,0,0,1,3.861-3.861h5.427a1.194,1.194,0,0,1,1.193,1.193,1.09,1.09,0,0,0,1.088,1.088h.057a1.194,1.194,0,0,1,1.193,1.193v3.277a.486.486,0,0,1-.326.458l-1.077.375a.066.066,0,0,1-.088-.063l0-2.037A2.377,2.377,0,0,0,15.3,32.795a5.448,5.448,0,0,1-3.172,0A2.378,2.378,0,0,0,8.794,34.95l0,2.038a.066.066,0,0,1-.088.063l-1.077-.375a.486.486,0,0,1-.326-.458v-2.89Zm-.932,5.732V37.112a.624.624,0,0,1,.053-.25,1.51,1.51,0,0,0,.868.782l.316.11v1.932H7a.627.627,0,0,1-.627-.627Zm2.271,1.06c-.017-.674-.007-1.389-.009-2.044.032,0,.063,0,.095,0a1.091,1.091,0,0,0,1.092-1.093l0-2.04c0-.832.743-1.579,2-1.176a6.452,6.452,0,0,0,3.8,0c1.195-.384,2,.292,2,1.178l0,2.038A1.091,1.091,0,0,0,18.8,38.075V40.16a5.055,5.055,0,0,1-.211,1.286,1.4,1.4,0,0,0-1-.423H16.3a1.4,1.4,0,1,0,0,2.8h.651a5.245,5.245,0,0,1-3.206,1.144,5.025,5.025,0,0,1-5.1-4.85Zm2.731,6.3v-.9a6.247,6.247,0,0,0,2.366.472h.012a6.253,6.253,0,0,0,2.3-.467v.892a2,2,0,0,0,.166.8H11.208A2,2,0,0,0,11.375,46.419ZM2.433,52.9l.081,1.491a.512.512,0,0,0,1.023-.055l-.27-4.979a1.06,1.06,0,0,1,1.059-1.118H23.105a1.06,1.06,0,0,1,1.059,1.118l-.482,8.873H15.647a3.148,3.148,0,0,1,.768-1.587l.015-.016a3.641,3.641,0,0,0-.918-5.589.781.781,0,0,0-1.168.678v2.325a.193.193,0,0,1-.193.193h-.868a.194.194,0,0,1-.193-.193V51.719a.781.781,0,0,0-1.168-.678A3.641,3.641,0,0,0,11,56.631l.013.015a3.147,3.147,0,0,1,.768,1.587H3.748l-.082-1.515a.512.512,0,0,0-1.023.055l.079,1.46H1.614a1.639,1.639,0,0,0-.179.01v-1.4a8.328,8.328,0,0,1,1-3.94ZM12.82,58.233a4.167,4.167,0,0,0-1.041-2.273l-.012-.014a2.614,2.614,0,0,1,.3-3.765v1.863a1.22,1.22,0,0,0,1.218,1.218h.868a1.22,1.22,0,0,0,1.218-1.218V52.181a2.614,2.614,0,0,1,.3,3.767l-.011.012a4.167,4.167,0,0,0-1.041,2.273Zm13,2.2H1.614a.589.589,0,1,1,0-1.179h24.2a.589.589,0,1,1,0,1.179Z" transform="translate(0 -26.519)"/>
            <path id="Trazado_879678" data-name="Trazado 879678" d="M339.348,3.82a.512.512,0,0,0,.512-.512V2.316a2.005,2.005,0,0,0-2-2h-8.619a2.005,2.005,0,0,0-2,2V6.627a2.005,2.005,0,0,0,2,2,.358.358,0,0,1,.358.358v2.666a.846.846,0,0,0,1.572.435l1.97-3.285a.36.36,0,0,1,.307-.174h4.413a2.005,2.005,0,0,0,2-2V5.7a.512.512,0,0,0-1.025,0v.923a.979.979,0,0,1-.978.978h-4.413a1.39,1.39,0,0,0-1.186.672l-1.638,2.731V8.988A1.384,1.384,0,0,0,329.238,7.6a.979.979,0,0,1-.978-.978V2.316a.979.979,0,0,1,.978-.978h8.619a.979.979,0,0,1,.978.978v.992a.512.512,0,0,0,.512.512Z" transform="translate(-304.875 -0.313)"/>
          </g>
        </g>
      </g>
    </g>
    <g id="Grupo_1101073" data-name="Grupo 1101073" transform="translate(-181.217 3086.782)">
      <g id="Elipse_11492-4" data-name="Elipse 11492" transform="translate(1120.333 126.218)" fill="#dcd0e7" stroke="#fff" stroke-width="2">
        <circle cx="30" cy="30" r="30" stroke="none"/>
        <circle cx="30" cy="30" r="29" fill="none"/>
      </g>
      <g id="clasificacion" transform="translate(1116.673 137.249)">
        <path id="Trazado_879679" data-name="Trazado 879679" d="M218.413,256.179h.7a1.394,1.394,0,0,1,0,2.788h-8.768a1.71,1.71,0,0,1-1.04-.357,4.417,4.417,0,0,0-2.635-.792v-8.863c2.383-2.723,5.4-2.979,5.193-7.049a1.232,1.232,0,0,1,2.406-.429,9.308,9.308,0,0,1-.045,6.34h6.39a1.394,1.394,0,0,1,0,2.788h-.472a1.394,1.394,0,1,1,0,2.788h-.463a1.394,1.394,0,0,1,0,2.788h-1.262Z" transform="translate(-175.688 -222.662)" fill="#dcd0e7"/>
        <path id="Trazado_879681" data-name="Trazado 879681" d="M57.58,7.506H25.609a1.291,1.291,0,0,0-1.3,1.284v8.022a1.291,1.291,0,0,0,1.3,1.284H38.935l2.659,4.034L44.253,18.1H57.58a1.291,1.291,0,0,0,1.3-1.284V8.79A1.291,1.291,0,0,0,57.58,7.506Z" transform="translate(-6.935 -6.946)" fill="#fff"/>
        <g id="Grupo_1102681" data-name="Grupo 1102681" transform="translate(19.812 3.268)">
          <path id="Trazado_879682" data-name="Trazado 879682" d="M60.061,44.013l.562,1.126a.374.374,0,0,0,.282.2l1.256.181a.369.369,0,0,1,.207.631l-.909.876a.368.368,0,0,0-.108.327l.215,1.237a.373.373,0,0,1-.543.39L59.9,48.4a.378.378,0,0,0-.348,0l-1.123.584a.373.373,0,0,1-.543-.39l.215-1.237a.367.367,0,0,0-.108-.327l-.909-.876a.369.369,0,0,1,.207-.631l1.256-.181a.374.374,0,0,0,.282-.2l.562-1.126A.376.376,0,0,1,60.061,44.013Z" transform="translate(-56.971 -43.807)" fill="#dcd0e7"/>
          <path id="Trazado_879683" data-name="Trazado 879683" d="M141.107,44.013l.562,1.126a.374.374,0,0,0,.282.2l1.256.181a.369.369,0,0,1,.207.631l-.909.876a.368.368,0,0,0-.108.327l.215,1.237a.373.373,0,0,1-.543.39l-1.124-.584a.378.378,0,0,0-.348,0l-1.124.584a.373.373,0,0,1-.543-.39l.215-1.237a.367.367,0,0,0-.107-.327l-.909-.876a.369.369,0,0,1,.207-.631l1.256-.181a.374.374,0,0,0,.282-.2l.562-1.126A.376.376,0,0,1,141.107,44.013Z" transform="translate(-131.97 -43.807)" fill="#dcd0e7"/>
          <path id="Trazado_879684" data-name="Trazado 879684" d="M222.154,44.013l.562,1.126a.374.374,0,0,0,.282.2l1.256.181a.369.369,0,0,1,.207.631l-.909.876a.367.367,0,0,0-.107.327l.215,1.237a.373.373,0,0,1-.542.39l-1.124-.584a.378.378,0,0,0-.348,0l-1.124.584a.373.373,0,0,1-.543-.39l.215-1.237a.367.367,0,0,0-.108-.327l-.909-.876a.369.369,0,0,1,.207-.631l1.256-.181a.374.374,0,0,0,.282-.2l.562-1.126A.376.376,0,0,1,222.154,44.013Z" transform="translate(-206.971 -43.807)" fill="#dcd0e7"/>
          <path id="Trazado_879685" data-name="Trazado 879685" d="M303.2,44.013l.562,1.126a.374.374,0,0,0,.282.2l1.256.181a.369.369,0,0,1,.207.631l-.909.876a.368.368,0,0,0-.108.327l.215,1.237a.373.373,0,0,1-.543.39l-1.124-.584a.378.378,0,0,0-.348,0l-1.124.584a.373.373,0,0,1-.543-.39l.215-1.237a.367.367,0,0,0-.107-.327l-.909-.876a.369.369,0,0,1,.207-.631l1.256-.181a.374.374,0,0,0,.282-.2l.562-1.126A.376.376,0,0,1,303.2,44.013Z" transform="translate(-281.971 -43.807)" fill="#dcd0e7"/>
          <path id="Trazado_879686" data-name="Trazado 879686" d="M384.246,44.013l.562,1.126a.374.374,0,0,0,.281.2l1.256.181a.369.369,0,0,1,.207.631l-.909.876a.367.367,0,0,0-.107.327l.215,1.237a.373.373,0,0,1-.543.39l-1.124-.584a.378.378,0,0,0-.348,0l-1.124.584a.373.373,0,0,1-.543-.39l.215-1.237a.367.367,0,0,0-.107-.327l-.909-.876a.369.369,0,0,1,.207-.631l1.256-.181a.374.374,0,0,0,.281-.2l.562-1.126A.376.376,0,0,1,384.246,44.013Z" transform="translate(-356.972 -43.807)" fill="#dcd0e7"/>
        </g>
        <path id="Trazado_879687" data-name="Trazado 879687" d="M170.979,337.153h2.662v11.154h-2.662Z" transform="translate(-142.662 -312.002)" fill="#fff"/>
        <path id="Trazado_879689" data-name="Trazado 879689" d="M99.734,318.462h5.315V332.34H99.734Z" transform="translate(-76.732 -294.705)" fill="#fff"/>
        <g id="Grupo_1102682" data-name="Grupo 1102682" transform="translate(16.817)">
          <path id="Trazado_879691" data-name="Trazado 879691" d="M55.835,36.614a.932.932,0,0,0-.509.244.932.932,0,0,0-.509-.244l-1.16-.167-.518-1.038a.935.935,0,0,0-1.672,0l-.518,1.038-1.161.167c-.966.159-1.041,1-.516,1.587l.836.806-.2,1.137c-.1,1.117.494,1.212,1.352.982l1.039-.541,1.039.541a.947.947,0,0,0,1.352-.982l-.2-1.137.829-.8.829.8-.2,1.137a.947.947,0,0,0,1.352.982l1.04-.541,1.039.541c.848.384,1.463-.1,1.352-.982l-.2-1.137.829-.8.829.8L62,40.144a.947.947,0,0,0,1.352.982l1.039-.54,1.039.54c.844.365,1.534-.026,1.352-.982l-.2-1.137.829-.8.829.8-.2,1.137a.947.947,0,0,0,1.352.982l1.04-.541,1.039.541c.933.347,1.456-.064,1.352-.982l-.2-1.137.829-.8.829.8-.2,1.137a.947.947,0,0,0,1.352.982l1.039-.541,1.039.541c.856.4,1.49-.045,1.352-.982l-.2-1.137.836-.806A.875.875,0,0,0,79,36.614l-1.161-.167-.518-1.038a.875.875,0,0,0-1.672,0l-.518,1.038-1.16.167a.932.932,0,0,0-.509.244.931.931,0,0,0-.509-.244l-1.161-.167-.518-1.038a.878.878,0,0,0-1.672,0l-.518,1.038-1.161.167a.932.932,0,0,0-.509.244.932.932,0,0,0-.509-.244l-1.16-.167-.518-1.038a.87.87,0,0,0-1.672,0l-.518,1.038-1.16.167a.932.932,0,0,0-.509.244.931.931,0,0,0-.509-.244l-1.16-.167-.518-1.038a.87.87,0,0,0-1.672,0L57,36.448Zm-2.187,1.658a.926.926,0,0,0-.271.826l.15.863-.792-.412a.938.938,0,0,0-.864,0l-.792.412.15-.863a.926.926,0,0,0-.27-.826l-.628-.606.874-.126a.933.933,0,0,0,.7-.506l.4-.794.4.794a.933.933,0,0,0,.7.506l.874.126Zm21.74-.731a.933.933,0,0,0,.7-.506l.4-.794.4.795a.933.933,0,0,0,.7.506l.874.126-.628.605a.926.926,0,0,0-.271.826l.15.863-.792-.412a.938.938,0,0,0-.864,0l-.792.412.15-.863a.926.926,0,0,0-.27-.826l-.628-.605Zm-6.046,0a.933.933,0,0,0,.7-.506l.4-.794.4.795a.933.933,0,0,0,.7.506l.874.126-.628.606a.926.926,0,0,0-.27.826l.15.863-.792-.412a.938.938,0,0,0-.864,0l-.792.412.15-.863a.926.926,0,0,0-.271-.826l-.628-.606Zm-6.046,0a.933.933,0,0,0,.7-.506l.4-.795.4.794a.933.933,0,0,0,.7.506l.874.126-.628.605a.926.926,0,0,0-.271.826l.15.863-.792-.412a.938.938,0,0,0-.864,0l-.792.412.15-.863a.926.926,0,0,0-.27-.826l-.628-.605Zm-5.343-.506.4-.794.4.795a.933.933,0,0,0,.7.506l.874.126-.628.606a.926.926,0,0,0-.27.826l.15.863-.792-.412a.938.938,0,0,0-.864,0l-.792.412.15-.863A.926.926,0,0,0,57,38.272l-.628-.605.874-.126A.933.933,0,0,0,57.953,37.035Z" transform="translate(-46.553 -32.185)"/>
          <path id="Trazado_879692" data-name="Trazado 879692" d="M34.192,15.492a.56.56,0,0,0,.934,0L37.62,11.71h5.7a.559.559,0,1,0,0-1.119h-6a.56.56,0,0,0-.467.252l-2.192,3.326-2.192-3.326A.56.56,0,0,0,32,10.591H18.674a.732.732,0,0,1-.738-.725V1.844a.732.732,0,0,1,.738-.725h8.438a.559.559,0,0,0,0-1.119H18.674a1.852,1.852,0,0,0-1.857,1.844V9.866a1.852,1.852,0,0,0,1.857,1.844H31.7Z" transform="translate(-16.817 0)"/>
          <path id="Trazado_879693" data-name="Trazado 879693" d="M206.119,0H185.383a.559.559,0,0,0,0,1.119h20.735a.732.732,0,0,1,.738.725V9.866a.732.732,0,0,1-.738.725h-4.525a.559.559,0,0,0,0,1.119h4.525a1.852,1.852,0,0,0,1.857-1.844V1.844A1.853,1.853,0,0,0,206.119,0Z" transform="translate(-172.291)"/>
          <path id="Trazado_879694" data-name="Trazado 879694" d="M116.664,242.27a1.956,1.956,0,0,0-1.953-1.953H109.1a10.049,10.049,0,0,0-.2-5.944,1.791,1.791,0,0,0-3.5.622c.128,2.465-1.018,3.32-2.6,4.5-.475.354-.988.738-1.5,1.194a.559.559,0,0,0-.529-.38h-2.1v-.835a.559.559,0,0,0-.559-.559H92.79a.559.559,0,0,0-.559.559V246.3a.559.559,0,0,0,1.119,0v-6.258h4.2V252.8h-4.2v-3.7a.559.559,0,0,0-1.119,0v4.263a.559.559,0,0,0,.559.559h5.315a.559.559,0,0,0,.559-.559v-.77h2.1a.559.559,0,0,0,.559-.559v-.541a3.248,3.248,0,0,1,1.735.628,2.282,2.282,0,0,0,1.38.472h8.768a1.968,1.968,0,0,0,1.594-3.081,2.011,2.011,0,0,0,.532-2.833,2.01,2.01,0,0,0,.466-2.784A1.953,1.953,0,0,0,116.664,242.27Zm-16.456,9.2H98.665V241.432h1.543v10.035Zm14.5-8.363h-1.734a.559.559,0,1,0,0,1.119h1.262a.834.834,0,0,1,0,1.669h-1.262a.559.559,0,1,0,0,1.119h.8a.834.834,0,1,1,0,1.669h-1.262a.559.559,0,0,0,0,1.119h.7a.834.834,0,0,1,0,1.669h-8.768a1.157,1.157,0,0,1-.7-.241,4.5,4.5,0,0,0-2.416-.867v-8.131a14.561,14.561,0,0,1,2.139-1.833c1.652-1.233,3.212-2.4,3.053-5.459a.672.672,0,0,1,1.312-.237,8.728,8.728,0,0,1-.031,5.973.56.56,0,0,0,.521.763h6.39a.834.834,0,1,1,0,1.669Z" transform="translate(-86.605 -215.721)"/>
        </g>
        <path id="Trazado_879695" data-name="Trazado 879695" d="M127.414,354.6a.642.642,0,1,1,.642-.642A.642.642,0,0,1,127.414,354.6Z" transform="translate(-101.753 -326.96)"/>
      </g>
    </g>
    <g id="Grupo_1102617" data-name="Grupo 1102617">
      <text id="Agency_provides_a_fu-5" data-name="Agency provides a fu" transform="translate(306.653 3287.53)" fill="#12263f" font-size="16" font-family="Roboto-Bold, Roboto" font-weight="700"><tspan x="0" y="15">1. </tspan><tspan y="15" font-family="Roboto-Regular, Roboto" font-weight="400">Conocer al cliente.</tspan></text>
      <g id="Grupo_1101071" data-name="Grupo 1101071" transform="translate(302.384 3213)">
        <g id="Elipse_11492-5" data-name="Elipse 11492" fill="#dcd0e7" stroke="#fff" stroke-width="2">
          <circle cx="30" cy="30" r="30" stroke="none"/>
          <circle cx="30" cy="30" r="29" fill="none"/>
        </g>
        <g id="clientes-potenciales" transform="translate(-19.699 7.031)">
          <g id="Grupo_1102706" data-name="Grupo 1102706" transform="translate(32.304 1.603)">
            <g id="Grupo_1102702" data-name="Grupo 1102702" transform="translate(0 20.728)">
              <path id="Trazado_879722" data-name="Trazado 879722" d="M39.546,366.018h12.5a.341.341,0,0,0,.34-.34V362.86a5.622,5.622,0,0,0-5.606-5.606H44.812a5.622,5.622,0,0,0-5.606,5.606v2.818A.341.341,0,0,0,39.546,366.018Z" transform="translate(-39.206 -349.998)" fill="#fff" fill-rule="evenodd"/>
              <ellipse id="Elipse_11510" data-name="Elipse 11510" cx="3.968" cy="3.919" rx="3.968" ry="3.919" transform="translate(2.621)" fill="#fff"/>
            </g>
            <g id="Grupo_1102703" data-name="Grupo 1102703" transform="translate(21.612 20.728)">
              <path id="Trazado_879723" data-name="Trazado 879723" d="M321.4,366.018H308.9a.341.341,0,0,1-.34-.34V362.86a5.622,5.622,0,0,1,5.606-5.606h1.966a5.622,5.622,0,0,1,5.606,5.606v2.818A.341.341,0,0,1,321.4,366.018Z" transform="translate(-308.559 -349.998)" fill="#fff" fill-rule="evenodd"/>
              <ellipse id="Elipse_11511" data-name="Elipse 11511" cx="3.968" cy="3.919" rx="3.968" ry="3.919" transform="translate(2.621)" fill="#fff"/>
            </g>
            <g id="Grupo_1102704" data-name="Grupo 1102704" transform="translate(10.806 23.699)">
              <path id="Trazado_879724" data-name="Trazado 879724" d="M186.72,403.046h-12.5a.341.341,0,0,1-.34-.34v-2.818a5.622,5.622,0,0,1,5.606-5.606h1.966a5.622,5.622,0,0,1,5.606,5.606v2.818A.341.341,0,0,1,186.72,403.046Z" transform="translate(-173.882 -387.026)" fill="#dcd0e7" fill-rule="evenodd"/>
              <ellipse id="Elipse_11512" data-name="Elipse 11512" cx="3.968" cy="3.919" rx="3.968" ry="3.919" transform="translate(2.621)" fill="#dcd0e7"/>
            </g>
            <g id="Grupo_1102705" data-name="Grupo 1102705" transform="translate(4.93 0)">
              <circle id="Elipse_11513" data-name="Elipse 11513" cx="8.558" cy="8.558" r="8.558" transform="translate(3.907 3.907)" fill="#dcd0e7"/>
              <circle id="Elipse_11514" data-name="Elipse 11514" cx="5.486" cy="5.486" r="5.486" transform="translate(6.979 6.979)" fill="#fff"/>
              <ellipse id="Elipse_11515" data-name="Elipse 11515" cx="1.575" cy="1.575" rx="1.575" ry="1.575" transform="translate(10.86 13.999) rotate(-88.625)" fill="#dcd0e7"/>
              <path id="Trazado_879725" data-name="Trazado 879725" d="M106.969,14.816l-3.138-.089-3.179-3.179,3.138.089L103.7,8.5l3.179,3.179Z" transform="translate(-100.653 -8.5)" fill="#fff" fill-rule="evenodd"/>
            </g>
          </g>
          <path id="Trazado_879726" data-name="Trazado 879726" d="M40.354,5.342a.6.6,0,0,0,.619-.618L40.927,3.1l1.94,1.939L42.931,7.3l-2.262-.064L38.729,5.3ZM49.7,13.094a.974.974,0,1,1-.973.973A.974.974,0,0,1,49.7,13.094Zm-1.9-.08-1.946-1.946a4.892,4.892,0,1,0,.851-.851l1.946,1.947a2.178,2.178,0,1,1-.851.85Zm9.86,1.054A7.951,7.951,0,0,0,44.518,8.035l1.325,1.326a6.085,6.085,0,1,1-.851.85L43.667,8.886a7.954,7.954,0,1,0,13.988,5.181ZM39.987,8.256a.6.6,0,0,0,.408.176l2.043.058a9.167,9.167,0,1,0,1.682-1.682l-.058-2.043a.6.6,0,0,0-.176-.408L40.708,1.177a.6.6,0,0,0-1.027.443l.071,2.5-2.5-.071a.6.6,0,0,0-.443,1.027ZM66.493,37.748h-9.62a6.2,6.2,0,0,0-1.465-3.6,6.3,6.3,0,0,0-.6-.618A5.036,5.036,0,0,1,58.475,30.3a4.6,4.6,0,0,0,4.059,0,5,5,0,0,1,3.959,4.892v2.556Zm-10.807,2.97V38.163a5,5,0,0,0-3.958-4.893,4.6,4.6,0,0,1-4.058,0,5,5,0,0,0-3.958,4.893v2.556Zm-13.162-2.97H32.906V35.192A5,5,0,0,1,36.864,30.3a4.6,4.6,0,0,0,4.058,0,5.035,5.035,0,0,1,3.672,3.233,6.293,6.293,0,0,0-.6.618,6.2,6.2,0,0,0-1.465,3.6ZM38.892,22.932a3.318,3.318,0,1,1-3.366,3.318A3.346,3.346,0,0,1,38.892,22.932ZM49.7,25.9a3.318,3.318,0,1,1-3.366,3.317A3.346,3.346,0,0,1,49.7,25.9Zm10.807-2.971a3.318,3.318,0,1,1-3.367,3.318A3.346,3.346,0,0,1,60.505,22.932Zm5.708,8.246A6.192,6.192,0,0,1,67.7,35.192V38.01a.944.944,0,0,1-.942.942H56.89v2.029a.943.943,0,0,1-.942.941H43.45a.943.943,0,0,1-.942-.941V38.952H32.643a.943.943,0,0,1-.941-.942V35.192a6.225,6.225,0,0,1,3.936-5.772,4.482,4.482,0,0,1-1.315-3.169,4.57,4.57,0,0,1,9.14,0,4.482,4.482,0,0,1-1.314,3.169A6.251,6.251,0,0,1,45.6,32.8a6.259,6.259,0,0,1,.842-.411,4.48,4.48,0,0,1-1.314-3.169,4.57,4.57,0,0,1,9.139,0,4.481,4.481,0,0,1-1.314,3.169,6.25,6.25,0,0,1,.843.411,6.254,6.254,0,0,1,3.453-3.382,4.482,4.482,0,0,1-1.315-3.169,4.57,4.57,0,0,1,9.139,0A4.481,4.481,0,0,1,63.76,29.42a6.239,6.239,0,0,1,2.454,1.759Z" transform="translate(0)" fill-rule="evenodd"/>
        </g>
      </g>
      <rect id="Rectngulo_403501" data-name="Rectngulo 403501" width="3" height="122" transform="translate(285.051 3209)" fill="none"/>
    </g>
  </g>
</svg>
