<svg xmlns="http://www.w3.org/2000/svg" width="66" height="66" viewBox="0 0 66 66">
  <g id="Grupo_1101046" data-name="Grupo 1101046" transform="translate(-1120.333 -126)">
    <g id="Elipse_11492" data-name="Elipse 11492" transform="translate(1120.333 126)" fill="#95dbb3" stroke="#fff" stroke-width="2">
      <circle cx="33" cy="33" r="33" stroke="none"/>
      <circle cx="33" cy="33" r="32" fill="none"/>
    </g>
    <g id="FILLED_OUTLINE" transform="translate(1114.668 120.333)">
      <rect id="Rectángulo_402842" data-name="Rectángulo 402842" width="17" height="26" rx="3" transform="translate(21.665 31.661)" fill="#fff"/>
      <circle id="Elipse_11497" data-name="Elipse 11497" cx="1" cy="1" r="1" transform="translate(23.665 57.661)" fill="#6e6e6e"/>
      <circle id="Elipse_11498" data-name="Elipse 11498" cx="1" cy="1" r="1" transform="translate(34.666 57.661)" fill="#6e6e6e"/>
      <path id="Trazado_878308" data-name="Trazado 878308" d="M142.044,36.4h-1.511V19.022a1.511,1.511,0,1,0-3.022,0V36.4H136V19.022a3.022,3.022,0,1,1,6.044,0Z" transform="translate(-108.668 0)" fill="#6e6e6e"/>
      <path id="Trazado_878309" data-name="Trazado 878309" d="M112,248h1.511v17.378H112Z" transform="translate(-86.934 -210.089)" fill="#7fddbb"/>
      <path id="Trazado_878310" data-name="Trazado 878310" d="M160,248h1.511v17.378H160Z" transform="translate(-130.401 -210.089)" fill="#7fddbb"/>
      <path id="Trazado_878311" data-name="Trazado 878311" d="M208,248h1.511v17.378H208Z" transform="translate(-173.868 -210.089)" fill="#7fddbb"/>
      <path id="Trazado_878312" data-name="Trazado 878312" d="M242.517,209.057l-8.188,16.426a1.436,1.436,0,0,0,.707,1.946l13.617,6.321,8.742-17.5Z" transform="translate(-197.575 -173.927)" fill="#fff"/>
      <path id="Trazado_878314" data-name="Trazado 878314" d="M0,0H1.511V7.555H0Z" transform="translate(41.147 52.527) rotate(-64.332)" fill="#bebebe"/>
      <path id="Trazado_878315" data-name="Trazado 878315" d="M311.866,29.289,309.6,30.8l-4.533-3.022,2.267-3.022L306.578,24l-4.533,2.267-1.754-1.053a3.022,3.022,0,0,0-3.692.454l-.6.6,12.585,7.691a1.511,1.511,0,0,0,1.856-.221l2.936-2.936Z" transform="translate(-253.557 -7.245)" fill="#fff"/>
      <path id="Trazado_878316" data-name="Trazado 878316" d="M322.474,293.572a4.553,4.553,0,0,0,.27-.708l-2.046-.984a7.343,7.343,0,0,0,.439-2.606l-.02-1.287a4.549,4.549,0,0,0-1.6-.77L318.5,288a7.341,7.341,0,0,0-1.762,1.97l-2.046-.984a4.555,4.555,0,0,0-.384.652v0a4.557,4.557,0,0,0-.269.707l2.046.984a7.343,7.343,0,0,0-.439,2.606l.02,1.287a4.549,4.549,0,0,0,1.6.77l1.018-.788a7.346,7.346,0,0,0,1.762-1.97l2.046.984A4.557,4.557,0,0,0,322.474,293.572Zm-5.119.444-.2.154,0-.252a5.83,5.83,0,0,1,.3-1.924l1.221.587A5.829,5.829,0,0,1,317.356,294.016Zm1.971-2.8-1.221-.587a5.831,5.831,0,0,1,1.317-1.434l.2-.154,0,.252A5.831,5.831,0,0,1,319.327,291.22Z" transform="translate(-269.888 -245.601)" fill="#dfdfdf"/>
      <g id="Grupo_1102381" data-name="Grupo 1102381" transform="translate(15.999 16)">
        <path id="Trazado_878317" data-name="Trazado 878317" d="M218.537,17.511a21.481,21.481,0,0,1,2.189.112l.155-1.5a22.939,22.939,0,0,0-6.251.216l.259,1.489A21.364,21.364,0,0,1,218.537,17.511Z" transform="translate(-195.871 -16)" fill="#3a312b"/>
        <path id="Trazado_878318" data-name="Trazado 878318" d="M26.265,62.768l-.887-1.224a22.684,22.684,0,0,0-7.033,28.417L19.7,89.29a21.173,21.173,0,0,1,6.566-26.522Z" transform="translate(-15.999 -57.243)" fill="#3a312b"/>
        <path id="Trazado_878319" data-name="Trazado 878319" d="M263.729,470.031l.051,1.51a22.628,22.628,0,0,0,6.253-1.1L269.565,469A21.114,21.114,0,0,1,263.729,470.031Z" transform="translate(-240.333 -426.222)" fill="#3a312b"/>
        <path id="Trazado_878320" data-name="Trazado 878320" d="M112,248h1.511v17.378H112Z" transform="translate(-102.933 -226.089)" fill="#3a312b"/>
        <path id="Trazado_878321" data-name="Trazado 878321" d="M160,248h1.511v17.378H160Z" transform="translate(-146.4 -226.089)" fill="#3a312b"/>
        <path id="Trazado_878322" data-name="Trazado 878322" d="M208,248h1.511v17.378H208Z" transform="translate(-189.867 -226.089)" fill="#3a312b"/>
        <path id="Trazado_878323" data-name="Trazado 878323" d="M104.371,39.4l-13.618-6.55a2.269,2.269,0,0,0-3.025,1.06L83.644,42.4V34.889a3.782,3.782,0,0,0-3.778-3.778H76.844V19.022a3.022,3.022,0,1,0-6.044,0V31.111H67.778A3.782,3.782,0,0,0,64,34.889V54.533a3.784,3.784,0,0,0,2.49,3.552,2.267,2.267,0,1,0,4.18.226h6.3a2.267,2.267,0,1,0,4.18-.226,3.792,3.792,0,0,0,2.4-2.714L94.219,60.5a.755.755,0,0,0,1.008-.353l9.5-19.745a.756.756,0,0,0-.353-1.008Zm-14.6-5.263a.751.751,0,0,1,.326.075l12.936,6.223-.655,1.362L89.444,35.569a.757.757,0,0,1-.354-1.008h0A.757.757,0,0,1,89.773,34.132ZM72.311,19.022a1.511,1.511,0,1,1,3.022,0V31.111H72.311ZM69.289,59.066a.756.756,0,1,1-.756-.756A.756.756,0,0,1,69.289,59.066Zm9.822.756a.756.756,0,1,1,.756-.756A.756.756,0,0,1,79.111,59.822Zm.756-3.022H67.778a2.269,2.269,0,0,1-2.267-2.267V34.889a2.269,2.269,0,0,1,2.267-2.267H70.8V36.4h1.511V32.622h3.022V36.4h1.511V32.622h3.022a2.269,2.269,0,0,1,2.267,2.267v10.65l-2.592,5.389a2.267,2.267,0,0,0,1.06,3.025l1.526.734A2.269,2.269,0,0,1,79.866,56.8Zm14.326,2.014L81.256,52.591a.756.756,0,0,1-.353-1.008l7.262-15.1a2.256,2.256,0,0,0,.625.445l12.937,6.223Z" transform="translate(-59.467 -16)" fill="#3a312b"/>
        <path id="Trazado_878324" data-name="Trazado 878324" d="M311.723,278.227a5.289,5.289,0,1,0,2.474,7.059A5.289,5.289,0,0,0,311.723,278.227Zm1.371,5.69-1.355-.652a7.344,7.344,0,0,0,.439-2.606l0-.262A3.791,3.791,0,0,1,313.094,283.916Zm-4.7,1.485-.2.154,0-.252a5.829,5.829,0,0,1,.3-1.924l1.221.587A5.828,5.828,0,0,1,308.4,285.4Zm.751-3.383a5.828,5.828,0,0,1,1.317-1.434l.2-.154,0,.252a5.831,5.831,0,0,1-.3,1.924Zm.289-2.8c.1,0,.206.006.309.014l-.206.16a7.34,7.34,0,0,0-1.762,1.97l-1.353-.651A3.79,3.79,0,0,1,309.437,279.215Zm-3.67,2.854,1.355.652a7.344,7.344,0,0,0-.439,2.606l0,.264A3.786,3.786,0,0,1,305.767,282.069Zm3.348,4.688.207-.16a7.343,7.343,0,0,0,1.762-1.97l1.355.652A3.791,3.791,0,0,1,309.115,286.756Z" transform="translate(-276.928 -252.987)" fill="#3a312b"/>
        <path id="Trazado_878325" data-name="Trazado 878325" d="M0,0H1.511V7.555H0Z" transform="translate(25.148 36.527) rotate(-64.332)" fill="#3a312b"/>
        <path id="Trazado_878326" data-name="Trazado 878326" d="M229.756,109.682a2.361,2.361,0,0,0-3.335,0,.848.848,0,0,1-1.2,0l-.189-.189a5.3,5.3,0,0,0-7.491,0,2.169,2.169,0,0,1-1.544.639v1.511a3.67,3.67,0,0,0,2.612-1.082,3.79,3.79,0,0,1,5.354,0l.189.189a2.361,2.361,0,0,0,3.335,0,.848.848,0,0,1,1.2,0l1.393,1.393a15.237,15.237,0,0,0,10.182,4.48,21.112,21.112,0,0,1,.621,3.844l1.508-.1a22.453,22.453,0,0,0-2.347-8.6l-1.35.678a21.065,21.065,0,0,1,1.107,2.637,13.733,13.733,0,0,1-8.652-4.007Z" transform="translate(-197.111 -99.26)" fill="#3a312b"/>
        <path id="Trazado_878327" data-name="Trazado 878327" d="M288.362,19.667l12.585,7.691a2.26,2.26,0,0,0,2.785-.331l2.936-2.936a.756.756,0,0,0,0-1.069l-1.511-1.511a.756.756,0,0,0-.953-.094l-1.847,1.232-3.45-2.3,1.787-2.383a.755.755,0,0,0-.07-.988l-.756-.756A.756.756,0,0,0,299,16.08l-4.162,2.081-1.4-.839a3.772,3.772,0,0,0-4.615.568l-.6.6a.756.756,0,0,0,.14,1.179Zm4.3-1.049,1.754,1.053a.756.756,0,0,0,.727.028l3.786-1.893-1.706,2.275a.755.755,0,0,0,.185,1.082l4.533,3.022a.756.756,0,0,0,.838,0l1.751-1.168.539.539-2.4,2.4a.753.753,0,0,1-.928.11l-11.763-7.189A2.263,2.263,0,0,1,292.657,18.617Z" transform="translate(-262.311 -16)" fill="#3a312b"/>
      </g>
    </g>
  </g>
</svg>
