<svg xmlns="http://www.w3.org/2000/svg" width="66" height="66" viewBox="0 0 66 66">
  <g id="Grupo_1101045" data-name="Grupo 1101045" transform="translate(-1296.333 -327)">
    <g id="Elipse_11493" data-name="Elipse 11493" transform="translate(1296.333 327)" fill="#95dbb3" stroke="#fff" stroke-width="2">
      <circle cx="33" cy="33" r="33" stroke="none"/>
      <circle cx="33" cy="33" r="32" fill="none"/>
    </g>
    <g id="surface1" transform="translate(1310.898 344.087)">
      <path id="Trazado_878328" data-name="Trazado 878328" d="M100.885,34.021l-4.6-6.461-.028-.028a10.92,10.92,0,0,0-2.872-2.067,10.935,10.935,0,0,0-7.04,18.645l.286.286,14.387,9.247a2.1,2.1,0,0,0-.518-2.12l-3.16-3.16.027-.027,3.16,3.16a2.1,2.1,0,0,0,2.972-2.972,2.1,2.1,0,0,0,2.973-2.972,2.1,2.1,0,0,0,2.972-2.973Zm0,0" transform="translate(-76.829 -23.07)" fill="#fff"/>
      <path id="Trazado_878330" data-name="Trazado 878330" d="M332.728,112.664l-1.7,1.414a4.481,4.481,0,0,0,1.077-.794Zm0,0" transform="translate(-305.9 -103.649)" fill="#fcc69d"/>
      <path id="Trazado_878331" data-name="Trazado 878331" d="M270.926,58.4l1.7-1.414-.62.62a4.481,4.481,0,0,1-1.077.794l-1,.835,8.949,8.949.361,1.194,1.472-1.472a10.937,10.937,0,0,0,.845-14.515,10.939,10.939,0,0,0-12.26,2.224l-3.3,3.3h2.847A4.479,4.479,0,0,0,270.926,58.4Zm0,0" transform="translate(-245.795 -47.975)" fill="#fff"/>
      <path id="Trazado_878332" data-name="Trazado 878332" d="M180.286,339.084l-1.309,1.308a2.1,2.1,0,1,0,2.973,2.972l1.308-1.308a2.1,2.1,0,1,0-2.972-2.972Zm0,0" transform="translate(-164.821 -312.311)" fill="#fff"/>
      <path id="Trazado_878333" data-name="Trazado 878333" d="M141.131,299.932l-1.308,1.308a2.1,2.1,0,0,0,2.972,2.972L144.1,302.9a2.1,2.1,0,1,0-2.973-2.972Zm0,0" transform="translate(-128.639 -276.131)" fill="#fff"/>
      <path id="Trazado_878334" data-name="Trazado 878334" d="M101.979,260.776l-1.308,1.308a2.1,2.1,0,1,0,2.972,2.973l1.308-1.309a2.1,2.1,0,1,0-2.972-2.972Zm0,0" transform="translate(-92.459 -239.947)" fill="#fff"/>
      <path id="Trazado_878335" data-name="Trazado 878335" d="M62.823,221.623l-1.308,1.308a2.1,2.1,0,0,0,2.973,2.972L65.8,224.6a2.1,2.1,0,1,0-2.973-2.972Zm0,0" transform="translate(-56.275 -203.767)" fill="#fff"/>
      <path id="Trazado_878336" data-name="Trazado 878336" d="M451.447,42.406a.758.758,0,1,0,.537.223A.764.764,0,0,0,451.447,42.406Zm0,0" transform="translate(-416.472 -38.725)"/>
      <path id="Trazado_878337" data-name="Trazado 878337" d="M221.759,277.934a.758.758,0,1,0,.537.222A.764.764,0,0,0,221.759,277.934Zm0,0" transform="translate(-204.222 -256.371)"/>
      <path id="Trazado_878338" data-name="Trazado 878338" d="M37.351,6.426a.759.759,0,1,0-1.32.751A10.2,10.2,0,0,1,34.375,19.4l-.576.576a2.843,2.843,0,0,0-.648-1l-7.8-7.8a5.247,5.247,0,0,0,1.4-1l1.5-1.5A.759.759,0,0,0,27.168,7.6l-1.5,1.5a3.7,3.7,0,0,1-2.632,1.09H20.049a.76.76,0,0,0-.537.222L17.223,12.7a1.744,1.744,0,1,1-2.466-2.466l5.227-5.227A10.218,10.218,0,0,1,32.112,3.3a.759.759,0,0,0,.736-1.328A11.778,11.778,0,0,0,25.628.611a11.572,11.572,0,0,0-6.187,2.823A11.694,11.694,0,0,0,3.425,20.464l.286.286a.752.752,0,0,0,.163.123,2.855,2.855,0,0,0,2.851,2.637l.114,0c0,.039,0,.077,0,.115A2.859,2.859,0,0,0,9.7,26.483l.114,0c0,.039,0,.077,0,.116a2.859,2.859,0,0,0,2.861,2.86l.115,0a2.86,2.86,0,0,0,4.88,2.138l1.061-1.061,1.433,1.433A2.86,2.86,0,0,0,25.04,29.8c.048,0,.1,0,.143,0a2.856,2.856,0,0,0,2.857-2.974l.116,0a2.858,2.858,0,0,0,2.857-2.975l.115,0a2.858,2.858,0,0,0,2.644-1.768.752.752,0,0,0,.2-.145l1.472-1.472A11.722,11.722,0,0,0,37.351,6.426ZM6.725,21.994A1.342,1.342,0,0,1,5.776,19.7l1.308-1.308a1.343,1.343,0,1,1,1.9,1.9L7.675,21.6A1.334,1.334,0,0,1,6.725,21.994Zm2.023,2.579a1.342,1.342,0,0,1,0-1.9l1.308-1.308h0a1.343,1.343,0,0,1,1.9,1.9l-1.308,1.308A1.344,1.344,0,0,1,8.748,24.573Zm2.972,2.973a1.343,1.343,0,0,1,0-1.9l1.309-1.308a1.343,1.343,0,0,1,1.9,1.9L13.62,27.545A1.344,1.344,0,0,1,11.721,27.545Zm4.871,2.973a1.343,1.343,0,0,1-1.9-1.9L16,27.311h0a1.343,1.343,0,1,1,1.9,1.9Zm15.485-8.573a1.342,1.342,0,0,1-1.9,0l-3.16-3.16h0l-2.972-2.972a.759.759,0,1,0-1.074,1.074L29.1,23.019a1.343,1.343,0,1,1-1.9,1.9l-6.133-6.133A.759.759,0,1,0,20,19.859l2.972,2.972h0l3.16,3.16a1.343,1.343,0,0,1-1.9,1.9l-3.16-3.16a.753.753,0,0,0-.194-.14l-.9-.9A.759.759,0,1,0,18.9,24.762l4.229,4.229a1.343,1.343,0,1,1-1.9,1.9l-1.609-1.609A2.862,2.862,0,0,0,16.951,25.4l-.115,0a2.858,2.858,0,0,0-2.857-2.975l-.116,0a2.858,2.858,0,0,0-2.857-2.975l-.115,0A2.86,2.86,0,0,0,6.01,17.32L4.7,18.628a2.843,2.843,0,0,0-.421.537A10.176,10.176,0,0,1,18.349,4.495L13.683,9.161A3.262,3.262,0,0,0,18.3,13.774l2.067-2.068H23.04a5.338,5.338,0,0,0,.655-.042l8.382,8.382A1.344,1.344,0,0,1,32.077,21.945Zm0,0"/>
    </g>
  </g>
</svg>
