<svg xmlns="http://www.w3.org/2000/svg" width="40.334" height="56.064" viewBox="0 0 40.334 56.064">
  <g id="Grupo_1102739" data-name="Grupo 1102739" transform="translate(-313.333 -3356.387)">
    <path id="Trazado_876160" data-name="Trazado 876160" d="M92,17.335a7.382,7.382,0,1,0,7.382,7.382A7.389,7.389,0,0,0,92,17.335Zm0,13.012a5.631,5.631,0,1,1,5.631-5.631A5.635,5.635,0,0,1,92,30.347ZM112,24.411a4.863,4.863,0,0,0-8.9-1.219l-6.4,10.952a.445.445,0,0,1-.517.21,15.225,15.225,0,0,0-8.384,0,.445.445,0,0,1-.517-.21l-6.4-10.95a4.864,4.864,0,0,0-8.4,4.906l9.425,16.139a.409.409,0,0,1,.065.234v9.393a2.212,2.212,0,0,0,2.21,2.21H99.8a2.212,2.212,0,0,0,2.21-2.21V44.471a.411.411,0,0,1,.064-.232L111.5,28.1a4.823,4.823,0,0,0,.5-3.687Zm-2.01,2.8-9.428,16.143a2.164,2.164,0,0,0-.3,1.113v9.393a.459.459,0,0,1-.459.459H84.194a.459.459,0,0,1-.459-.459V44.47a2.168,2.168,0,0,0-.3-1.115L74.006,27.214a3.113,3.113,0,0,1,2.676-4.681,3.132,3.132,0,0,1,.8.1,3.087,3.087,0,0,1,1.9,1.437l6.4,10.95a2.187,2.187,0,0,0,2.485,1.019,13.376,13.376,0,0,1,7.474,0,2.191,2.191,0,0,0,2.484-1.018l6.4-10.952a3.113,3.113,0,0,1,5.376,3.139ZM84.905,7.357l2.888,2.089-1.1,3.381a1.583,1.583,0,0,0,2.435,1.778L92,12.5l2.883,2.1a1.582,1.582,0,0,0,2.433-1.773L96.208,9.447,99.094,7.36a1.584,1.584,0,0,0-.93-2.868L94.6,4.5l-1.1-3.391a1.581,1.581,0,0,0-3.01,0L89.4,4.5,85.835,4.49a1.585,1.585,0,0,0-.93,2.867ZM89.519,6.25a1.581,1.581,0,0,0,1.51-1.1L92,2.144l.972,3.009a1.581,1.581,0,0,0,1.512,1.1l3.165-.008L95.085,8.1a1.58,1.58,0,0,0-.578,1.777l.984,3.01L92.935,11.02a1.579,1.579,0,0,0-1.868,0L88.51,12.884l.984-3.014A1.586,1.586,0,0,0,88.917,8.1L86.352,6.242Zm8.83,9.145,3.44-4.343a.875.875,0,0,1,1.372,1.087l-3.44,4.343a.875.875,0,1,1-1.372-1.087Zm2.642,2.557,4.8-2.768a.875.875,0,0,1,.875,1.517l-4.8,2.768a.875.875,0,0,1-.875-1.517ZM80.839,12.139a.875.875,0,0,1,1.372-1.087l3.44,4.343a.875.875,0,1,1-1.372,1.087ZM77.018,15.5a.877.877,0,0,1,1.2-.321l4.8,2.768a.875.875,0,1,1-.875,1.517l-4.8-2.768A.874.874,0,0,1,77.018,15.5Z" transform="translate(241.5 3356.377)" fill="#935d16"/>
  </g>
</svg>
