<svg xmlns="http://www.w3.org/2000/svg" width="55.02" height="44.284" viewBox="0 0 55.02 44.284">
  <path id="Trazado_876161" data-name="Trazado 876161" d="M13.3,68.961a.875.875,0,0,1,.035-.167,13.673,13.673,0,0,1,.88-2.734,7.42,7.42,0,0,1,7.095-4.75A7.507,7.507,0,0,1,26.451,63a8.925,8.925,0,0,1,2.731,6.013,11.845,11.845,0,0,1-.526,5.044,17.5,17.5,0,0,1-4.078,7.24,7.929,7.929,0,0,0-1.929,5.631,6.307,6.307,0,0,1-.6,3.292,5.561,5.561,0,0,1-2.456,1.764,4.422,4.422,0,0,1-3.55,0c-1.342-.681-2.488-2.458-2.146-6.362a.887.887,0,0,1,1.768.155,8.366,8.366,0,0,0,.246,3.409,2.019,2.019,0,0,0,.935,1.215,2.636,2.636,0,0,0,2.109-.076,3.69,3.69,0,0,0,1.625-1.1,1.793,1.793,0,0,0,.235-.814c.051-.45.05-.962.062-1.52a9.6,9.6,0,0,1,2.375-6.77,15.517,15.517,0,0,0,3.69-6.519.887.887,0,0,1,.108-.287,9.294,9.294,0,0,0,.368-4.135,7.133,7.133,0,0,0-2.121-4.834,5.809,5.809,0,0,0-3.976-1.264c-3.577.026-5.211,2.493-5.979,5.014a8.65,8.65,0,0,1,2.55.338,3.949,3.949,0,0,1,2.933,3.034c.744,3.666-1.189,5.661-2.464,7.627a2.278,2.278,0,0,0,.064,2.123c.389.993.978,1.919,1.2,2.561a.887.887,0,0,1-1.677.58c-.267-.772-1.063-1.955-1.4-3.172a3.622,3.622,0,0,1,.33-3.058c1.064-1.64,2.834-3.25,2.214-6.308a2.254,2.254,0,0,0-1.722-1.692,7.209,7.209,0,0,0-2.437-.252,18.89,18.89,0,0,0-.235,4.185.887.887,0,0,1-1.769.14,21.041,21.041,0,0,1,.377-5.243Zm-4.521.773A.887.887,0,1,1,7,69.846s-.591-8.47,8.763-13.292h0a10.291,10.291,0,0,1,3.907-1.111h0a14.473,14.473,0,0,1,13.592,6.245l.012.018A17.971,17.971,0,0,1,35.27,74.056a9.918,9.918,0,0,1-3.484,6.252,18.054,18.054,0,0,0-4.769,6.072,15.968,15.968,0,0,0-1.538,6.732,6.438,6.438,0,0,1-1.338,4.058c-.926,1.036-2.569,1.873-5.666,2.4a6.864,6.864,0,0,1-2.794-.092h0a8.706,8.706,0,0,1-5.281-3.4,7.362,7.362,0,0,1-.7-5.963.887.887,0,1,1,1.724.423,5.694,5.694,0,0,0,.468,4.583,6.845,6.845,0,0,0,4.208,2.63,5.088,5.088,0,0,0,2.072.068h0c2.513-.43,3.892-1,4.643-1.836a4.775,4.775,0,0,0,.892-3.015,17.644,17.644,0,0,1,1.724-7.395A19.59,19.59,0,0,1,30.588,79a8.418,8.418,0,0,0,2.945-5.3,16.152,16.152,0,0,0-1.75-11.031,12.723,12.723,0,0,0-11.971-5.45,8.515,8.515,0,0,0-3.232.919c-8.216,4.235-7.805,11.6-7.805,11.6ZM62.016,69.2a3.041,3.041,0,0,1-3.038,3.035H49.639l-3.946,4.107a.887.887,0,0,1-1.527-.615V72.239h-.932A3.041,3.041,0,0,1,40.2,69.2V58.429a3.045,3.045,0,0,1,3.038-3.038H58.978a3.045,3.045,0,0,1,3.038,3.038Zm-1.775,0V58.429a1.266,1.266,0,0,0-1.264-1.264H43.234a1.266,1.266,0,0,0-1.264,1.264V69.2a1.264,1.264,0,0,0,1.264,1.26h1.819a.887.887,0,0,1,.887.887v2.175l2.68-2.79a.887.887,0,0,1,.64-.273h9.717A1.264,1.264,0,0,0,60.241,69.2ZM45.275,64.741a.887.887,0,1,1,0-1.775H56.749a.887.887,0,0,1,0,1.775Zm0,3.41a.887.887,0,1,1,0-1.775H56.749a.887.887,0,1,1,0,1.775Zm0-6.824a.887.887,0,0,1,0-1.775H56.749a.887.887,0,0,1,0,1.775ZM41.083,78.007a10.3,10.3,0,1,1-3.025,20.144l-5.581,1.494a.888.888,0,0,1-1.087-1.087l1.19-4.444a10.3,10.3,0,0,1,8.5-16.108Zm0,1.775a8.523,8.523,0,0,0-6.827,13.625.887.887,0,0,1,.147.762l-.9,3.365,4.349-1.164a.888.888,0,0,1,.51.015,8.524,8.524,0,1,0,2.723-16.6Zm-4.372,9.368a.887.887,0,1,1,0-1.775h8.747a.887.887,0,1,1,0,1.775Zm0-3.315a.887.887,0,1,1,0-1.775h8.747a.887.887,0,1,1,0,1.775Zm0,6.63a.887.887,0,1,1,0-1.775h8.747a.887.887,0,1,1,0,1.775Z" transform="translate(-6.996 -55.391)" fill="#935d16" fill-rule="evenodd"/>
</svg>
