<svg xmlns="http://www.w3.org/2000/svg" width="32.001" height="56.012" viewBox="0 0 32.001 56.012">
  <g id="Grupo_1101814" data-name="Grupo 1101814" transform="translate(-16 -3.988)">
    <path id="Trazado_876162" data-name="Trazado 876162" d="M24.249,37.225l3.559-3.513a1,1,0,1,0-1.4-1.424L22.845,35.8a1,1,0,0,0,1.4,1.424Z" fill="#935d16"/>
    <path id="Trazado_876163" data-name="Trazado 876163" d="M23,42.063a1,1,0,0,0-2,0v5.968a1,1,0,1,0,2,0Z" fill="#935d16"/>
    <path id="Trazado_876164" data-name="Trazado 876164" d="M22,53a1,1,0,0,0-1,1v5a1,1,0,0,0,2,0V54A1,1,0,0,0,22,53Z" fill="#935d16"/>
    <path id="Trazado_876165" data-name="Trazado 876165" d="M17,60a1,1,0,0,0,1-1V40.13a9.057,9.057,0,0,1,2.677-6.4l6.659-6.575a3.019,3.019,0,0,0-.133-4.385C20.821,17.113,24.643,6.408,33.15,6.01a9.66,9.66,0,0,1,10.067,9.6c-.2.222,2.282,3.848,2.512,4.3H44.217a1,1,0,0,0-1,1v4.641a.99.99,0,0,1-.989.989H38.912a1,1,0,0,0-.748.336l-2.828,3.187a3.011,3.011,0,0,0-.156,3.792l2.484,3.313a9.049,9.049,0,0,1,1.69,6.8L37.012,58.844a1,1,0,0,0,1.977.312L41.331,44.28a11.064,11.064,0,0,0-2.067-8.311l-2.484-3.312a1,1,0,0,1,.053-1.265l2.529-2.85h2.866a2.992,2.992,0,0,0,2.989-2.989V21.912h1.119a1.675,1.675,0,0,0,1.41-2.545l-2.533-4.052a11.666,11.666,0,0,0-12.155-11.3c-10.275.486-14.9,13.4-7.187,20.244a1.008,1.008,0,0,1,.061,1.471L19.272,32.3A11.066,11.066,0,0,0,16,40.13V59a1,1,0,0,0,1,1Z" fill="#935d16"/>
  </g>
</svg>
