<svg id="_006---Emotions" data-name="006---Emotions" xmlns="http://www.w3.org/2000/svg" width="46.297" height="46.297" viewBox="0 0 46.297 46.297">
  <path id="Shape" d="M10.8,21.605A10.8,10.8,0,1,0,0,10.8,10.8,10.8,0,0,0,10.8,21.605Zm0-20.062A9.259,9.259,0,1,1,1.543,10.8,9.259,9.259,0,0,1,10.8,1.543Z" fill="#935d16"/>
  <path id="Shape-2" data-name="Shape" d="M42.8,32a10.8,10.8,0,1,0,10.8,10.8A10.8,10.8,0,0,0,42.8,32Zm0,20.062A9.259,9.259,0,1,1,52.062,42.8,9.259,9.259,0,0,1,42.8,52.062Z" transform="translate(-7.308 -7.308)" fill="#935d16"/>
  <path id="Shape-3" data-name="Shape" d="M42.8,0a10.8,10.8,0,1,0,10.8,10.8A10.8,10.8,0,0,0,42.8,0Zm0,20.062A9.259,9.259,0,1,1,52.062,10.8,9.259,9.259,0,0,1,42.8,20.062Z" transform="translate(-7.308)" fill="#935d16"/>
  <path id="Shape-4" data-name="Shape" d="M10.8,53.605A10.8,10.8,0,1,0,0,42.8,10.8,10.8,0,0,0,10.8,53.605Zm0-20.062A9.259,9.259,0,1,1,1.543,42.8,9.259,9.259,0,0,1,10.8,33.543Z" transform="translate(0 -7.308)" fill="#935d16"/>
  <path id="Shape-5" data-name="Shape" d="M40.244,12.945a2.694,2.694,0,0,0,.3-5.371,3.866,3.866,0,0,0,.086-.8.772.772,0,1,0-1.543,0,2.315,2.315,0,0,1-2.315,2.315.772.772,0,1,0,0,1.543,3.867,3.867,0,0,0,.8-.086A2.7,2.7,0,0,0,40.244,12.945Zm-.463-3.759a1.139,1.139,0,0,1,.463-.1,1.157,1.157,0,1,1-1.157,1.157,1.142,1.142,0,0,1,.1-.463c.046-.036.077-.086.124-.124a3.846,3.846,0,0,0,.341-.341c.039-.048.09-.083.13-.13Z" transform="translate(-8.222 -1.37)" fill="#935d16"/>
  <path id="Shape-6" data-name="Shape" d="M7.7,45.173a2.7,2.7,0,0,0,2.662-2.32c.012,0,.025.005.038.005a.772.772,0,0,0,.4-1.433L6.94,39.11a.772.772,0,0,0-1.059.264.761.761,0,0,0,.171.974A2.69,2.69,0,0,0,7.7,45.173Zm0-1.543a1.158,1.158,0,0,1-.085-2.315L8.758,42a1.12,1.12,0,0,1,.1.471A1.157,1.157,0,0,1,7.7,43.63Z" transform="translate(-1.142 -8.907)" fill="#935d16"/>
  <path id="Path" d="M6.543,11.086a1.543,1.543,0,0,1,3.086,0,.772.772,0,0,0,1.543,0,3.086,3.086,0,0,0-6.173,0,.772.772,0,0,0,1.543,0Z" transform="translate(-1.142 -1.827)" fill="#935d16"/>
  <path id="Path-2" data-name="Path" d="M15.772,11.858a.772.772,0,0,0,.772-.772,1.543,1.543,0,0,1,3.086,0,.772.772,0,1,0,1.543,0,3.086,3.086,0,0,0-6.173,0A.772.772,0,0,0,15.772,11.858Z" transform="translate(-3.426 -1.827)" fill="#935d16"/>
  <path id="Path-3" data-name="Path" d="M8.365,17.278a.772.772,0,0,0-1.187.988A6.776,6.776,0,0,0,12.4,20.858a6.776,6.776,0,0,0,5.223-2.593.772.772,0,1,0-1.187-.988A5.259,5.259,0,0,1,12.4,19.315a5.259,5.259,0,0,1-4.036-2.037Z" transform="translate(-1.599 -3.882)" fill="#935d16"/>
  <path id="Path-4" data-name="Path" d="M51.63,42.772a1.543,1.543,0,0,1-3.086,0,.772.772,0,1,0-1.543,0,3.086,3.086,0,0,0,6.173,0,.772.772,0,1,0-1.543,0Z" transform="translate(-10.734 -9.592)" fill="#935d16"/>
  <path id="Path-5" data-name="Path" d="M43.173,42.772a.772.772,0,1,0-1.543,0,1.543,1.543,0,0,1-3.086,0,.772.772,0,1,0-1.543,0,3.086,3.086,0,0,0,6.173,0Z" transform="translate(-8.45 -9.592)" fill="#935d16"/>
  <path id="Path-6" data-name="Path" d="M44.4,16a6.776,6.776,0,0,0-5.223,2.593.772.772,0,0,0,1.187.988,5.015,5.015,0,0,1,8.073,0,.772.772,0,1,0,1.187-.988A6.776,6.776,0,0,0,44.4,16Z" transform="translate(-8.907 -3.654)" fill="#935d16"/>
  <path id="Path-7" data-name="Path" d="M46.707,20.328a2.232,2.232,0,0,0-2.323,0,.772.772,0,0,0,.779,1.332.682.682,0,0,1,.764,0,.772.772,0,1,0,.779-1.332Z" transform="translate(-10.052 -4.568)" fill="#935d16"/>
  <path id="Shape-7" data-name="Shape" d="M50.858,6.772a.772.772,0,1,0-1.543,0,3.867,3.867,0,0,0,.086.8,2.694,2.694,0,1,0,2.97,2.97,3.867,3.867,0,0,0,.8.086.772.772,0,0,0,0-1.543,2.315,2.315,0,0,1-2.315-2.315Zm-.1,3.009a1.142,1.142,0,0,1,.1.463A1.157,1.157,0,1,1,49.7,9.086a1.139,1.139,0,0,1,.463.1c.037.047.087.082.127.127a3.846,3.846,0,0,0,.341.341C50.678,9.692,50.712,9.742,50.758,9.781Z" transform="translate(-10.734 -1.37)" fill="#935d16"/>
  <path id="Shape-8" data-name="Shape" d="M15.771,42.858c.012,0,.025,0,.038-.005a2.694,2.694,0,1,0,4.309-2.5.761.761,0,0,0,.171-.974.772.772,0,0,0-1.059-.264l-3.858,2.315a.772.772,0,0,0,.4,1.433Zm2.7.772a1.157,1.157,0,0,1-1.157-1.157,1.12,1.12,0,0,1,.1-.469l1.14-.688a1.158,1.158,0,0,1-.083,2.315Z" transform="translate(-3.426 -8.907)" fill="#935d16"/>
  <path id="Path-8" data-name="Path" d="M10.374,51.061a.772.772,0,1,0-1.205.965,2.7,2.7,0,0,0,4.291,0,1.182,1.182,0,0,1,1.883,0,.772.772,0,0,0,1.2-.965,2.7,2.7,0,0,0-4.291,0,1.181,1.181,0,0,1-1.881,0Z" transform="translate(-2.055 -11.419)" fill="#935d16"/>
  <path id="Path-9" data-name="Path" d="M48.488,50H40.772a.772.772,0,1,0,0,1.543h7.716a.772.772,0,0,0,0-1.543Z" transform="translate(-9.135 -11.419)" fill="#935d16"/>
</svg>
